<svg version="1.1" viewBox="0.0 0.0 796.8005249343832 1123.1994750656168" fill="none" stroke="none" stroke-linecap="square" stroke-miterlimit="10" xmlns:xlink="http://www.w3.org/1999/xlink" xmlns="http://www.w3.org/2000/svg"><clipPath id="g5d6b8f2b59_1_0.0"><path d="m0 0l796.80054 0l0 1123.1995l-796.80054 0l0 -1123.1995z" clip-rule="nonzero"/></clipPath><g clip-path="url(#g5d6b8f2b59_1_0.0)"><path fill="#ffffff" d="m0 0l796.80054 0l0 1123.1995l-796.80054 0z" fill-rule="evenodd"/><path fill="#000000" fill-opacity="0.0" d="m57.490814 547.16797l0 52.97638l17.795273 0" fill-rule="evenodd"/><path stroke="#595959" stroke-width="1.0" stroke-linejoin="round" stroke-linecap="butt" d="m57.490814 547.16797l0 52.97638l11.795273 0" fill-rule="evenodd"/><path fill="#595959" stroke="#595959" stroke-width="1.0" stroke-linecap="butt" d="m69.28609 601.7961l4.538101 -1.6517334l-4.538101 -1.6517334z" fill-rule="evenodd"/><path fill="#000000" fill-opacity="0.0" d="m57.490814 547.18896l0 151.4331l18.48819 0" fill-rule="evenodd"/><path stroke="#595959" stroke-width="1.0" stroke-linejoin="round" stroke-linecap="butt" d="m57.490814 547.18896l0 151.4331l12.48819 0" fill-rule="evenodd"/><path fill="#595959" stroke="#595959" stroke-width="1.0" stroke-linecap="butt" d="m69.979004 700.2738l4.5380936 -1.6517334l-4.5380936 -1.6517334z" fill-rule="evenodd"/><path fill="#000000" fill-opacity="0.0" d="m207.12204 461.3517l0 83.74802l-26.45668 0l0 -83.74802z" fill-rule="evenodd"/><path fill="#073763" d="m197.5337 473.36734l0 -2.359375l11.453125 2.390625l0 4.65625q0 1.25 -0.296875 1.96875q-0.28125 0.71875 -0.96875 1.140625q-0.671875 0.421875 -1.609375 0.421875q-0.859375 0 -1.6875 -0.34375q-0.8125 -0.328125 -1.3125 -0.8125q-0.484375 -0.484375 -0.75 -1.046875q-0.25 -0.5625 -0.375 -1.515625q-0.078125 -0.5625 -0.078125 -2.078125l0 -1.515625l-4.375 -0.90625zm6.265625 1.296875l0 0.734375q0 1.859375 0.234375 2.484375q0.234375 0.625 0.75 0.984375q0.515625 0.359375 1.140625 0.359375q0.40625 0 0.671875 -0.1875q0.265625 -0.171875 0.390625 -0.515625q0.125 -0.328125 0.125 -1.46875l0 -1.6875l-3.3125 -0.703125zm2.03125 8.609375l0 2.09375l-1.609375 -0.328125q1.8125 1.171875 1.8125 2.53125q0 0.484375 -0.25 1.046875l-1.828125 -0.859375q0.109375 -0.3125 0.109375 -0.65625q0 -0.578125 -0.4375 -1.171875q-0.4375 -0.59375 -1.171875 -0.9375q-0.734375 -0.328125 -2.3125 -0.65625l-2.609375 -0.546875l0 -2.25l8.296875 1.734375zm3.15625 7.0078125l0 2.25l-2.03125 -0.421875l0 -2.25l2.03125 0.421875zm-3.15625 -0.65625l0 2.25l-8.296875 -1.734375l0 -2.25l8.296875 1.734375zm0 4.3828125l0 2.109375l-1.0 -0.21875q1.203125 1.234375 1.203125 2.59375q0 0.9375 -0.390625 1.4375q-0.390625 0.515625 -1.078125 0.65625q0.625 0.4375 1.046875 1.234375q0.421875 0.8125 0.421875 1.671875q0 1.0 -0.53125 1.546875q-0.53125 0.5625 -1.40625 0.5625q-0.4375 0 -1.484375 -0.21875l-5.078125 -1.0625l0 -2.25l5.078125 1.0625q0.953125 0.203125 1.078125 0.203125q0.34375 0 0.53125 -0.21875q0.203125 -0.203125 0.203125 -0.609375q0 -0.84375 -0.875 -1.5q-0.640625 -0.46875 -2.25 -0.8125l-3.765625 -0.78125l0 -2.25l5.015625 1.046875q0.875 0.1875 1.125 0.1875q0.328125 0 0.53125 -0.234375q0.21875 -0.21875 0.21875 -0.609375q0 -0.359375 -0.21875 -0.75q-0.21875 -0.390625 -0.609375 -0.6875q-0.375 -0.296875 -0.96875 -0.5q-0.28125 -0.09375 -1.28125 -0.3125l-3.8125 -0.796875l0 -2.234375l8.296875 1.734375zm-2.34375 15.7265625l0.1875 -2.1875q1.109375 0.375 1.734375 1.296875q0.625 0.9375 0.625 2.484375q0 1.5937195 -0.65625 2.3593445q-0.640625 0.765625 -1.5625 0.765625q-0.375 0 -0.796875 -0.0625q-0.421875 -0.0625 -2.21875 -0.46875q-1.484375 -0.328125 -2.078125 -0.328125q-0.53125 0 -1.1875 0.1875l0 -2.1718445q0.453125 -0.140625 0.9375 -0.171875q-0.546875 -0.484375 -0.84375 -1.125q-0.296875 -0.640625 -0.296875 -1.296875q0 -1.03125 0.671875 -1.703125q0.6875 -0.671875 1.75 -0.671875q1.1875 0 1.890625 0.734375q0.71875 0.75 0.875 2.640625q0.125 1.609375 0.3125 2.1405945q0.46875 0.140625 0.75 0.140625q0.359375 0 0.59375 -0.296875q0.25 -0.28121948 0.25 -0.8437195q0 -0.609375 -0.25 -0.953125q-0.234375 -0.34375 -0.6875 -0.46875zm-2.078125 2.125q-0.0625 -0.203125 -0.109375 -0.53125q-0.203125 -1.6875 -0.59375 -2.203125q-0.28125 -0.375 -0.75 -0.375q-0.390625 0 -0.671875 0.28125q-0.265625 0.28125 -0.265625 0.75q0 0.5 0.25 0.953125q0.25 0.453125 0.625 0.671875q0.390625 0.21875 1.21875 0.390625l0.296875 0.0625zm4.421875 5.210907l0 2.09375l-1.609375 -0.328125q1.8125 1.171875 1.8125 2.53125q0 0.484375 -0.25 1.046875l-1.828125 -0.859375q0.109375 -0.3125 0.109375 -0.65625q0 -0.578125 -0.4375 -1.171875q-0.4375 -0.59375 -1.171875 -0.9375q-0.734375 -0.328125 -2.3125 -0.65625l-2.609375 -0.546875l0 -2.25l8.296875 1.734375zm0 5.3203125l0 2.234375l-4.125 0.5625q-1.59375 0.203125 -2.234375 0.234375q1.265625 0.4375 2.6875 1.203125l3.671875 1.984375l0 2.375l-9.109375 -5.125q-1.140625 -0.640625 -1.59375 -1.0q-0.453125 -0.359375 -0.703125 -0.875q-0.265625 -0.515625 -0.265625 -1.234375q0 -0.703125 0.25 -1.59375l1.671875 0.1875q-0.109375 0.40625 -0.109375 0.796875q0 1.03125 1.5625 1.6875l8.296875 -1.4375z" fill-rule="nonzero"/><path fill="#073763" d="m184.48683 474.1642l0.1875 -2.1875q1.109375 0.375 1.734375 1.296875q0.625 0.9375 0.625 2.484375q0 1.59375 -0.65625 2.359375q-0.640625 0.765625 -1.5625 0.765625q-0.375 0 -0.796875 -0.0625q-0.421875 -0.0625 -2.21875 -0.46875q-1.484375 -0.328125 -2.078125 -0.328125q-0.53125 0 -1.1875 0.1875l0 -2.171875q0.453125 -0.140625 0.9375 -0.171875q-0.546875 -0.484375 -0.84375 -1.125q-0.296875 -0.640625 -0.296875 -1.296875q0 -1.03125 0.671875 -1.703125q0.6875 -0.671875 1.75 -0.671875q1.1875 0 1.890625 0.734375q0.71875 0.75 0.875 2.640625q0.125 1.609375 0.3125 2.140625q0.46875 0.140625 0.75 0.140625q0.359375 0 0.59375 -0.296875q0.25 -0.28125 0.25 -0.84375q0 -0.609375 -0.25 -0.953125q-0.234375 -0.34375 -0.6875 -0.46875zm-2.078125 2.125q-0.0625 -0.203125 -0.109375 -0.53125q-0.203125 -1.6875 -0.59375 -2.203125q-0.28125 -0.375 -0.75 -0.375q-0.390625 0 -0.671875 0.28125q-0.265625 0.28125 -0.265625 0.75q0 0.5 0.25 0.953125q0.25 0.453125 0.625 0.671875q0.390625 0.21875 1.21875 0.390625l0.296875 0.0625zm-0.75 9.2265625l-0.34375 2.1875q-1.453125 -0.546875 -2.21875 -1.609375q-0.765625 -1.046875 -0.765625 -2.4375q0 -1.578125 0.953125 -2.515625q0.953125 -0.921875 2.609375 -0.921875q1.34375 0 2.546875 0.5625q1.203125 0.5625 1.890625 1.6875q0.703125 1.140625 0.703125 2.484375q0 1.46875 -0.765625 2.34375q-0.765625 0.875 -2.015625 0.984375l-0.234375 -2.125q0.703125 -0.078125 1.03125 -0.4375q0.328125 -0.34375 0.328125 -0.90625q0 -0.640625 -0.484375 -1.203125q-0.484375 -0.5625 -1.453125 -0.875q-0.96875 -0.296875 -1.8125 -0.296875q-0.734375 0 -1.140625 0.359375q-0.390625 0.359375 -0.390625 0.90625q0 0.53125 0.390625 1.03125q0.390625 0.5 1.171875 0.78125zm0 8.8984375l-0.34375 2.1875q-1.453125 -0.546875 -2.21875 -1.609375q-0.765625 -1.046875 -0.765625 -2.4375q0 -1.578125 0.953125 -2.515625q0.953125 -0.921875 2.609375 -0.921875q1.34375 0 2.546875 0.5625q1.203125 0.5625 1.890625 1.6875q0.703125 1.140625 0.703125 2.484375q0 1.46875 -0.765625 2.34375q-0.765625 0.875 -2.015625 0.984375l-0.234375 -2.125q0.703125 -0.078125 1.03125 -0.4375q0.328125 -0.34375 0.328125 -0.90625q0 -0.640625 -0.484375 -1.203125q-0.484375 -0.5625 -1.453125 -0.875q-0.96875 -0.296875 -1.8125 -0.296875q-0.734375 0 -1.140625 0.359375q-0.390625 0.359375 -0.390625 0.90625q0 0.53125 0.390625 1.03125q0.390625 0.5 1.171875 0.78125zm0.328125 3.6015625q2.296875 0 3.671875 1.296875q1.375 1.3125 1.375 3.421875q0 1.84375 -1.015625 2.875q-1.015625 1.03125 -2.71875 1.03125q-2.015625 0 -3.5 -1.296875q-1.46875 -1.28125 -1.46875 -3.453125q0 -1.171875 0.46875 -2.078125q0.484375 -0.90625 1.34375 -1.359375q0.859375 -0.4375 1.84375 -0.4375zm1.59375 6.390625q0.796875 0 1.28125 -0.46875q0.484375 -0.453125 0.484375 -1.1875q0 -0.734375 -0.453125 -1.296875q-0.453125 -0.5625 -1.3125 -0.875q-0.84375 -0.3125 -1.5625 -0.3125q-0.890625 0 -1.421875 0.484375q-0.515625 0.484375 -0.515625 1.21875q0 0.921875 0.78125 1.546875q1.125 0.890625 2.71875 0.890625zm3.25 4.7734375l0 2.25l-4.90625 -1.03125q-0.890625 -0.1875 -1.109375 -0.1875q-0.359375 0 -0.625 0.265625q-0.25 0.265625 -0.25 0.6875q0 0.296875 0.109375 0.578125q0.125 0.29684448 0.34375 0.5937195q0.234375 0.3125 0.53125 0.546875q0.296875 0.25 0.78125 0.453125q0.359375 0.15625 1.171875 0.328125l3.953125 0.828125l0 2.234375l-8.296875 -1.734375l0 -2.09375l1.125 0.234375q-1.328125 -1.3749695 -1.328125 -2.9843445q0 -1.03125 0.59375 -1.625q0.59375 -0.578125 1.578125 -0.578125q0.421875 0 1.703125 0.265625l4.625 0.96875zm0 9.820282l0 2.125l-1.078125 -0.21875q0.6875 0.796875 0.984375 1.484375q0.296875 0.703125 0.296875 1.46875q0 1.015625 -0.59375 1.609375q-0.578125 0.59375 -1.546875 0.59375q-0.4375 0 -1.65625 -0.265625l-4.703125 -0.96875l0 -2.25l4.71875 0.984375q1.046875 0.21875 1.25 0.21875q0.4375 0 0.671875 -0.25q0.25 -0.25 0.25 -0.703125q0 -0.5 -0.421875 -1.109375q-0.40625 -0.59375 -1.078125 -0.9375q-0.484375 -0.25 -1.984375 -0.5625l-3.40625 -0.703125l0 -2.25l8.296875 1.734375zm-1.65625 8.5703125l1.65625 0.34375l0 1.09375l1.328125 0.28125l1.546875 2.5625l-2.875 -0.59375l0 1.359375l-1.65625 -0.34375l0 -1.375l-3.484375 -0.71875q-0.9375 -0.203125 -1.078125 -0.203125q-0.25 0 -0.40625 0.15625q-0.140625 0.171875 -0.140625 0.609375q0 0.140625 0.0625 0.734375l-1.671875 -0.34375q-0.125 -0.578125 -0.125 -1.1875q0 -1.1875 0.453125 -1.734375q0.46875 -0.53125 1.28125 -0.53125q0.390625 0 1.765625 0.28125l3.34375 0.703125l0 -1.09375z" fill-rule="nonzero"/><path fill="#000000" fill-opacity="0.0" d="m238.17586 580.59845l0 123.52753l-17.763779 0l0 -123.52753z" fill-rule="evenodd"/><path fill="#073763" d="m227.15271 590.6141l0.109375 2.25q-1.0625 0.046875 -1.4375 0.359375q-0.609375 0.515625 -0.609375 1.90625q0 1.15625 0.40625 1.671875q0.421875 0.515625 1.0 0.515625q0.515625 0 0.859375 -0.421875q0.265625 -0.296875 0.84375 -1.625q0.578125 -1.328125 0.953125 -1.953125q0.390625 -0.609375 1.0 -0.96875q0.625 -0.34375 1.453125 -0.34375q1.453125 0 2.40625 1.046875q0.953125 1.046875 0.953125 3.03125q0 2.015625 -0.953125 3.125q-0.9375 1.109375 -2.515625 1.21875l-0.09375 -2.265625q0.8125 -0.078125 1.25 -0.59375q0.4375 -0.5 0.4375 -1.5q0 -0.96875 -0.34375 -1.390625q-0.34375 -0.421875 -0.859375 -0.421875q-0.5 0 -0.8125 0.390625q-0.328125 0.375 -0.90625 1.6875q-0.84375 1.984375 -1.375 2.515625q-0.78125 0.8125 -2.015625 0.8125q-1.515625 0 -2.59375 -1.203125q-1.078125 -1.203125 -1.078125 -3.34375q0 -1.46875 0.5 -2.5625q0.5 -1.078125 1.375 -1.53125q0.890625 -0.4375 2.046875 -0.40625zm4.578125 12.015625l0 2.25l-4.90625 -1.03125q-0.890625 -0.1875 -1.109375 -0.1875q-0.359375 0 -0.625 0.265625q-0.25 0.265625 -0.25 0.6875q0 0.296875 0.109375 0.578125q0.125 0.296875 0.34375 0.59375q0.234375 0.3125 0.53125 0.546875q0.296875 0.25 0.78125 0.453125q0.359375 0.15625 1.171875 0.328125l3.953125 0.828125l0 2.234375l-8.296875 -1.734375l0 -2.09375l1.125 0.234375q-1.328125 -1.375 -1.328125 -2.984375q0 -1.03125 0.59375 -1.625q0.59375 -0.578125 1.578125 -0.578125q0.421875 0 1.703125 0.265625l4.625 0.96875zm-8.296875 7.9921875l11.453125 2.390625l0 2.25l-3.828125 -0.796875q0.46875 0.609375 0.671875 1.140625q0.203125 0.546875 0.203125 1.171875q0 1.3125 -0.890625 2.09375q-0.875 0.796875 -2.546875 0.796875q-1.140625 0 -2.203125 -0.375q-1.0625 -0.359375 -1.734375 -0.984375q-0.671875 -0.625 -1.0 -1.3125q-0.328125 -0.671875 -0.328125 -1.421875q0 -1.78125 1.578125 -2.625l-1.375 -0.28125l0 -2.046875zm3.390625 3.03125q-0.84375 0 -1.375 0.46875q-0.515625 0.46875 -0.515625 1.109375q0 0.5625 0.40625 1.078125q0.40625 0.515625 1.296875 0.84375q0.890625 0.34375 1.796875 0.34375q0.890625 0 1.390625 -0.453125q0.5 -0.453125 0.5 -1.109375q0 -0.84375 -0.78125 -1.453125q-1.0625 -0.828125 -2.71875 -0.828125zm2.5625 9.9765625l0.1875 -2.1875q1.109375 0.375 1.734375 1.296875q0.625 0.9375 0.625 2.484375q0 1.59375 -0.65625 2.359375q-0.640625 0.765625 -1.5625 0.765625q-0.375 0 -0.796875 -0.0625q-0.421875 -0.0625 -2.21875 -0.46875q-1.484375 -0.328125 -2.078125 -0.328125q-0.53125 0 -1.1875 0.1875l0 -2.171875q0.453125 -0.140625 0.9375 -0.171875q-0.546875 -0.484375 -0.84375 -1.125q-0.296875 -0.640625 -0.296875 -1.296875q0 -1.03125 0.671875 -1.703125q0.6875 -0.671875 1.75 -0.671875q1.1875 0 1.890625 0.734375q0.71875 0.75 0.875 2.640625q0.125 1.609375 0.3125 2.140625q0.46875 0.140625 0.75 0.140625q0.359375 0 0.59375 -0.296875q0.25 -0.28125 0.25 -0.84375q0 -0.609375 -0.25 -0.953125q-0.234375 -0.34375 -0.6875 -0.46875zm-2.078125 2.125q-0.0625 -0.203125 -0.109375 -0.53125q-0.203125 -1.6875 -0.59375 -2.203125q-0.28125 -0.375 -0.75 -0.375q-0.390625 0 -0.671875 0.28125q-0.265625 0.28125 -0.265625 0.75q0 0.5 0.25 0.953125q0.25 0.453125 0.625 0.671875q0.390625 0.21875 1.21875 0.390625l0.296875 0.0625zm-0.75 9.2265625l-0.34375 2.1875q-1.453125 -0.546875 -2.21875 -1.609375q-0.765625 -1.046875 -0.765625 -2.4375q0 -1.578125 0.953125 -2.515625q0.953125 -0.921875 2.609375 -0.921875q1.34375 0 2.546875 0.5625q1.203125 0.5625 1.890625 1.6875q0.703125 1.140625 0.703125 2.484375q0 1.46875 -0.765625 2.34375q-0.765625 0.875 -2.015625 0.984375l-0.234375 -2.125q0.703125 -0.078125 1.03125 -0.4375q0.328125 -0.34375 0.328125 -0.90625q0 -0.640625 -0.484375 -1.203125q-0.484375 -0.5625 -1.453125 -0.875q-0.96875 -0.296875 -1.8125 -0.296875q-0.734375 0 -1.140625 0.359375q-0.390625 0.359375 -0.390625 0.90625q0 0.53125 0.390625 1.03125q0.390625 0.5 1.171875 0.78125zm0 8.8984375l-0.34375 2.1875q-1.453125 -0.546875 -2.21875 -1.609375q-0.765625 -1.046875 -0.765625 -2.4375q0 -1.578125 0.953125 -2.515625q0.953125 -0.921875 2.609375 -0.921875q1.34375 0 2.546875 0.5625q1.203125 0.5625 1.890625 1.6875q0.703125 1.140625 0.703125 2.484375q0 1.46875 -0.765625 2.34375q-0.765625 0.875 -2.015625 0.984375l-0.234375 -2.125q0.703125 -0.078125 1.03125 -0.4375q0.328125 -0.34375 0.328125 -0.90625q0 -0.640625 -0.484375 -1.203125q-0.484375 -0.5625 -1.453125 -0.875q-0.96875 -0.296875 -1.8125 -0.296875q-0.734375 0 -1.140625 0.359375q-0.390625 0.359375 -0.390625 0.90625q0 0.53125 0.390625 1.03125q0.390625 0.5 1.171875 0.78125zm0.328125 3.6015625q2.296875 0 3.671875 1.296875q1.375 1.3125 1.375 3.421875q0 1.84375 -1.015625 2.875q-1.015625 1.03125 -2.71875 1.03125q-2.015625 0 -3.5 -1.296875q-1.46875 -1.28125 -1.46875 -3.453125q0 -1.171875 0.46875 -2.078125q0.484375 -0.90625 1.34375 -1.359375q0.859375 -0.4375 1.84375 -0.4375zm1.59375 6.390625q0.796875 0 1.28125 -0.46875q0.484375 -0.453125 0.484375 -1.1875q0 -0.734375 -0.453125 -1.296875q-0.453125 -0.5625 -1.3125 -0.875q-0.84375 -0.3125 -1.5625 -0.3125q-0.890625 0 -1.421875 0.484375q-0.515625 0.484375 -0.515625 1.21875q0 0.921875 0.78125 1.546875q1.125 0.890625 2.71875 0.890625zm3.25 4.7734375l0 2.25l-4.90625 -1.03125q-0.890625 -0.1875 -1.109375 -0.1875q-0.359375 0 -0.625 0.265625q-0.25 0.265625 -0.25 0.6875q0 0.296875 0.109375 0.578125q0.125 0.296875 0.34375 0.59375q0.234375 0.3125 0.53125 0.546875q0.296875 0.25 0.78125 0.453125q0.359375 0.15625 1.171875 0.328125l3.953125 0.828125l0 2.234375l-8.296875 -1.734375l0 -2.09375l1.125 0.234375q-1.328125 -1.375 -1.328125 -2.984375q0 -1.03125 0.59375 -1.625q0.59375 -0.578125 1.578125 -0.578125q0.421875 0 1.703125 0.265625l4.625 0.96875zm0 9.8203125l0 2.125l-1.078125 -0.21875q0.6875 0.796875 0.984375 1.484375q0.296875 0.703125 0.296875 1.46875q0 1.015625 -0.59375 1.609375q-0.578125 0.59375 -1.546875 0.59375q-0.4375 0 -1.65625 -0.265625l-4.703125 -0.96875l0 -2.25l4.71875 0.984375q1.046875 0.21875 1.25 0.21875q0.4375 0 0.671875 -0.25q0.25 -0.25 0.25 -0.703125q0 -0.5 -0.421875 -1.109375q-0.40625 -0.59375 -1.078125 -0.9375q-0.484375 -0.25 -1.984375 -0.5625l-3.40625 -0.703125l0 -2.25l8.296875 1.734375zm-1.65625 8.5703125l1.65625 0.34375l0 1.09375l1.328125 0.28125l1.546875 2.5625l-2.875 -0.59375l0 1.359375l-1.65625 -0.34375l0 -1.375l-3.484375 -0.71875q-0.9375 -0.203125 -1.078125 -0.203125q-0.25 0 -0.40625 0.15625q-0.140625 0.171875 -0.140625 0.609375q0 0.140625 0.0625 0.734375l-1.671875 -0.34375q-0.125 -0.578125 -0.125 -1.1875q0 -1.1875 0.453125 -1.734375q0.46875 -0.53125 1.28125 -0.53125q0.390625 0 1.765625 0.28125l3.34375 0.703125l0 -1.09375zm-4.3125 4.484375l0.34375 2.171875q-0.6875 0.28125 -0.984375 0.703125q-0.28125 0.4375 -0.28125 1.1875q0 0.765625 0.34375 1.21875q0.234375 0.328125 0.578125 0.328125q0.21875 0 0.40625 -0.171875q0.171875 -0.171875 0.421875 -0.921875q0.671875 -2.03125 1.0625 -2.515625q0.609375 -0.765625 1.59375 -0.765625q0.984375 0 1.6875 0.734375q1.0 1.03125 1.0 3.046875q0 1.59375 -0.59375 2.40625q-0.578125 0.828125 -1.578125 1.046875l-0.359375 -2.0625q0.453125 -0.171875 0.671875 -0.53125q0.3125 -0.5 0.3125 -1.203125q0 -0.703125 -0.234375 -1.015625q-0.234375 -0.3125 -0.546875 -0.3125q-0.3125 0 -0.515625 0.3125q-0.125 0.203125 -0.4375 1.265625q-0.46875 1.640625 -0.9375 2.1875q-0.640625 0.78125 -1.5625 0.78125q-1.171875 0 -2.046875 -1.0q-0.875 -0.984375 -0.875 -2.78125q0 -1.796875 0.65625 -2.78125q0.671875 -0.984375 1.875 -1.328125z" fill-rule="nonzero"/><path fill="#000000" fill-opacity="0.0" d="m25.782152 458.56168l146.64568 0l0 87.90549l-146.64568 0z" fill-rule="evenodd"/><path stroke="#595959" stroke-width="1.0" stroke-linejoin="round" stroke-linecap="butt" stroke-dasharray="4.0,3.0" d="m25.782152 458.56168l146.64568 0l0 87.90549l-146.64568 0z" fill-rule="evenodd"/><path fill="#cccccc" d="m28.63517 465.90558l0 0c0 -1.8844604 1.527668 -3.41214 3.4121437 -3.41214l132.92374 0c0.90496826 0 1.7728577 0.35949707 2.4127502 0.99938965c0.63990784 0.6398926 0.9994049 1.507782 0.9994049 2.4127502l0 13.648163c0 1.8844604 -1.5276794 3.41214 -3.4121552 3.41214l-132.92374 0c-1.8844757 0 -3.4121437 -1.5276794 -3.4121437 -3.41214z" fill-rule="evenodd"/><path fill="#000000" d="m49.923134 477.52966l-2.09375 0l-0.84375 -2.171875l-3.8125 0l-0.78125 2.171875l-2.046875 0l3.71875 -9.546875l2.03125 0l3.828125 9.546875zm-3.546875 -3.78125l-1.3125 -3.53125l-1.296875 3.53125l2.609375 0zm4.5626526 3.78125l0 -9.546875l3.09375 0q1.75 0 2.296875 0.15625q0.8125 0.203125 1.359375 0.921875q0.5625 0.71875 0.5625 1.859375q0 0.875 -0.328125 1.484375q-0.3125 0.59375 -0.8125 0.9375q-0.484375 0.34375 -0.984375 0.453125q-0.703125 0.140625 -2.0 0.140625l-1.265625 0l0 3.59375l-1.921875 0zm1.921875 -7.921875l0 2.703125l1.0625 0q1.140625 0 1.515625 -0.140625q0.390625 -0.15625 0.609375 -0.46875q0.21875 -0.328125 0.21875 -0.75q0 -0.515625 -0.3125 -0.859375q-0.296875 -0.34375 -0.765625 -0.421875q-0.34375 -0.0625 -1.390625 -0.0625l-0.9375 0zm6.9053802 7.921875l0 -9.546875l1.9375 0l0 9.546875l-1.9375 0zm7.3903503 0l0 -9.546875l1.828125 0l0 5.0625l2.140625 -2.421875l2.25 0l-2.359375 2.515625l2.53125 4.390625l-1.96875 0l-1.734375 -3.109375l-0.859375 0.890625l0 2.21875l-1.828125 0zm11.474976 -2.203125l1.828125 0.3125q-0.34375 1.0 -1.109375 1.53125q-0.765625 0.515625 -1.890625 0.515625q-1.8125 0 -2.671875 -1.171875q-0.6875 -0.953125 -0.6875 -2.390625q0 -1.71875 0.890625 -2.6875q0.90625 -0.96875 2.28125 -0.96875q1.546875 0 2.4375 1.015625q0.890625 1.015625 0.84375 3.125l-4.578125 0q0.015625 0.8125 0.4375 1.265625q0.421875 0.453125 1.0625 0.453125q0.421875 0 0.71875 -0.234375q0.296875 -0.234375 0.4375 -0.765625zm0.109375 -1.84375q-0.015625 -0.796875 -0.40625 -1.203125q-0.390625 -0.421875 -0.953125 -0.421875q-0.59375 0 -0.984375 0.4375q-0.390625 0.4375 -0.390625 1.1875l2.734375 0zm2.4437256 -2.859375l1.9375 0l1.65625 4.90625l1.609375 -4.90625l1.90625 0l-2.453125 6.640625l-0.421875 1.203125q-0.25 0.609375 -0.46875 0.921875q-0.21875 0.328125 -0.5 0.515625q-0.28125 0.203125 -0.703125 0.3125q-0.40625 0.125 -0.921875 0.125q-0.53125 0 -1.03125 -0.125l-0.171875 -1.421875q0.4375 0.078125 0.78125 0.078125q0.640625 0 0.9375 -0.375q0.3125 -0.375 0.46875 -0.953125l-2.625 -6.921875zm8.631226 1.828125l0 -1.828125l1.828125 0l0 1.828125l-1.828125 0zm0 5.078125l0 -1.828125l1.828125 0l0 1.828125l-1.828125 0zm13.563232 -1.703125l0 1.703125l-6.40625 0q0.109375 -0.96875 0.625 -1.828125q0.53125 -0.859375 2.0625 -2.28125q1.234375 -1.15625 1.515625 -1.5625q0.375 -0.5625 0.375 -1.125q0 -0.609375 -0.328125 -0.9375q-0.328125 -0.328125 -0.90625 -0.328125q-0.578125 0 -0.921875 0.34375q-0.328125 0.34375 -0.375 1.140625l-1.828125 -0.171875q0.15625 -1.515625 1.015625 -2.171875q0.859375 -0.65625 2.15625 -0.65625q1.40625 0 2.203125 0.765625q0.8125 0.75 0.8125 1.890625q0 0.640625 -0.234375 1.234375q-0.21875 0.578125 -0.71875 1.203125q-0.328125 0.4375 -1.203125 1.234375q-0.859375 0.78125 -1.09375 1.046875q-0.234375 0.25 -0.375 0.5l3.625 0zm7.6624756 -3.171875l-1.796875 0.328125q-0.09375 -0.53125 -0.421875 -0.796875q-0.328125 -0.28125 -0.828125 -0.28125q-0.6875 0 -1.09375 0.46875q-0.40625 0.46875 -0.40625 1.578125q0 1.234375 0.40625 1.75q0.421875 0.5 1.109375 0.5q0.53125 0 0.859375 -0.296875q0.328125 -0.296875 0.46875 -1.03125l1.796875 0.3125q-0.28125 1.234375 -1.078125 1.875q-0.796875 0.625 -2.125 0.625q-1.515625 0 -2.421875 -0.953125q-0.90625 -0.953125 -0.90625 -2.65625q0 -1.703125 0.90625 -2.65625q0.90625 -0.953125 2.453125 -0.953125q1.265625 0 2.0 0.546875q0.75 0.53125 1.078125 1.640625zm1.0374756 2.671875l1.765625 -0.203125q0.0625 0.546875 0.328125 0.8125q0.28125 0.25 0.734375 0.25q0.5625 0 0.953125 -0.515625q0.40625 -0.515625 0.515625 -2.15625q-0.6875 0.796875 -1.71875 0.796875q-1.125 0 -1.953125 -0.859375q-0.8125 -0.875 -0.8125 -2.28125q0 -1.4375 0.859375 -2.328125q0.859375 -0.890625 2.203125 -0.890625q1.453125 0 2.375 1.125q0.9375 1.125 0.9375 3.6875q0 2.625 -0.96875 3.78125q-0.96875 1.15625 -2.53125 1.15625q-1.109375 0 -1.8125 -0.59375q-0.6875 -0.59375 -0.875 -1.78125zm4.140625 -4.0q0 -0.890625 -0.40625 -1.375q-0.40625 -0.484375 -0.953125 -0.484375q-0.5 0 -0.84375 0.40625q-0.328125 0.390625 -0.328125 1.296875q0 0.9375 0.359375 1.375q0.375 0.421875 0.921875 0.421875q0.515625 0 0.875 -0.40625q0.375 -0.421875 0.375 -1.234375zm4.8031006 1.0625q-0.71875 -0.3125 -1.046875 -0.828125q-0.3125 -0.53125 -0.3125 -1.15625q0 -1.0625 0.734375 -1.75q0.75 -0.703125 2.125 -0.703125q1.359375 0 2.109375 0.703125q0.765625 0.6875 0.765625 1.75q0 0.671875 -0.359375 1.1875q-0.34375 0.515625 -0.96875 0.796875q0.796875 0.3125 1.203125 0.921875q0.421875 0.609375 0.421875 1.40625q0 1.328125 -0.84375 2.15625q-0.84375 0.828125 -2.234375 0.828125q-1.3125 0 -2.171875 -0.6875q-1.015625 -0.8125 -1.015625 -2.21875q0 -0.765625 0.375 -1.40625q0.390625 -0.65625 1.21875 -1.0zm0.375 -1.84375q0 0.546875 0.296875 0.859375q0.3125 0.296875 0.828125 0.296875q0.53125 0 0.84375 -0.3125q0.3125 -0.3125 0.3125 -0.859375q0 -0.515625 -0.3125 -0.8125q-0.3125 -0.3125 -0.828125 -0.3125q-0.515625 0 -0.828125 0.3125q-0.3125 0.3125 -0.3125 0.828125zm-0.171875 4.078125q0 0.765625 0.390625 1.1875q0.390625 0.421875 0.96875 0.421875q0.5625 0 0.921875 -0.40625q0.375 -0.40625 0.375 -1.1875q0 -0.65625 -0.375 -1.0625q-0.375 -0.40625 -0.953125 -0.40625q-0.671875 0 -1.0 0.46875q-0.328125 0.453125 -0.328125 0.984375zm8.724983 -6.671875q1.390625 0 2.171875 0.984375q0.921875 1.171875 0.921875 3.890625q0 2.703125 -0.9375 3.890625q-0.765625 0.96875 -2.15625 0.96875q-1.390625 0 -2.2500076 -1.0625q-0.84375 -1.078125 -0.84375 -3.8125q0 -2.703125 0.9375 -3.890625q0.7656326 -0.96875 2.1562576 -0.96875zm0 1.515625q-0.328125 0 -0.59375 0.21875q-0.25 0.203125 -0.40625 0.75q-0.1875 0.703125 -0.1875 2.390625q0 1.671875 0.171875 2.3125q0.171875 0.625 0.421875 0.828125q0.265625 0.203125 0.59375 0.203125q0.328125 0 0.59375 -0.203125q0.265625 -0.21875 0.40625 -0.765625q0.1875 -0.703125 0.1875 -2.375q0 -1.6875 -0.171875 -2.3125q-0.171875 -0.625 -0.4375 -0.828125q-0.25 -0.21875 -0.578125 -0.21875zm7.4124756 -1.515625q1.390625 0 2.171875 0.984375q0.921875 1.171875 0.921875 3.890625q0 2.703125 -0.9375 3.890625q-0.765625 0.96875 -2.15625 0.96875q-1.390625 0 -2.25 -1.0625q-0.84375 -1.078125 -0.84375 -3.8125q0 -2.703125 0.9375 -3.890625q0.765625 -0.96875 2.15625 -0.96875zm0 1.515625q-0.328125 0 -0.59375 0.21875q-0.25 0.203125 -0.40625 0.75q-0.1875 0.703125 -0.1875 2.390625q0 1.671875 0.171875 2.3125q0.171875 0.625 0.421875 0.828125q0.265625 0.203125 0.59375 0.203125q0.328125 0 0.59375 -0.203125q0.265625 -0.21875 0.40625 -0.765625q0.1875 -0.703125 0.1875 -2.375q0 -1.6875 -0.171875 -2.3125q-0.171875 -0.625 -0.4375 -0.828125q-0.25 -0.21875 -0.578125 -0.21875zm10.740601 3.1875l-1.796875 0.328125q-0.09375 -0.53125 -0.421875 -0.796875q-0.328125 -0.28125 -0.828125 -0.28125q-0.6875 0 -1.09375 0.46875q-0.40625 0.46875 -0.40625 1.578125q0 1.234375 0.40625 1.75q0.421875 0.5 1.109375 0.5q0.53125 0 0.859375 -0.296875q0.328125 -0.296875 0.46875 -1.03125l1.796875 0.3125q-0.28125 1.234375 -1.078125 1.875q-0.796875 0.625 -2.125 0.625q-1.515625 0 -2.421875 -0.953125q-0.90625 -0.953125 -0.90625 -2.65625q0 -1.703125 0.90625 -2.65625q0.90625 -0.953125 2.453125 -0.953125q1.265625 0 2.0 0.546875q0.75 0.53125 1.078125 1.640625zm7.7249756 4.875l-1.703125 0l0 -1.015625q-0.421875 0.59375 -1.0 0.890625q-0.578125 0.28125 -1.15625 0.28125q-1.1875 0 -2.046875 -0.953125q-0.84375 -0.96875 -0.84375 -2.6875q0 -1.75 0.828125 -2.65625q0.828125 -0.921875 2.09375 -0.921875q1.15625 0 2.0 0.953125l0 -3.4375l1.828125 0l0 9.546875zm-4.875 -3.609375q0 1.109375 0.296875 1.609375q0.4375 0.71875 1.234375 0.71875q0.640625 0 1.078125 -0.53125q0.4375 -0.546875 0.4375 -1.609375q0 -1.203125 -0.4375 -1.71875q-0.421875 -0.53125 -1.09375 -0.53125q-0.640625 0 -1.078125 0.515625q-0.4375 0.515625 -0.4375 1.546875z" fill-rule="nonzero"/><path fill="#000000" fill-opacity="0.0" d="m55.230827 487.61548l105.41732 0l0 18.141754l-105.41732 0z" fill-rule="evenodd"/><path fill="#000000" d="m72.26208 498.12698l1.265625 0.171875q-0.59375 1.65625 -1.75 2.5q-1.140625 0.84375 -2.5625 0.84375q-1.734375 0 -2.765625 -1.046875q-1.015625 -1.0625 -1.015625 -3.046875q0 -2.578125 1.5625 -4.265625q1.375 -1.5 3.421875 -1.5q1.515625 0 2.453125 0.8125q0.953125 0.8125 1.09375 2.1875l-1.1875 0.109375q-0.1875 -1.03125 -0.78125 -1.546875q-0.59375 -0.515625 -1.515625 -0.515625q-1.75 0 -2.828125 1.5625q-0.9375 1.34375 -0.9375 3.1875q0 1.46875 0.71875 2.25q0.71875 0.765625 1.875 0.765625q1.0 0 1.796875 -0.640625q0.796875 -0.65625 1.15625 -1.828125zm2.2501526 0.734375q0 -2.015625 1.1875 -3.34375q0.984375 -1.09375 2.578125 -1.09375q1.25 0 2.015625 0.78125q0.765625 0.78125 0.765625 2.109375q0 1.1875 -0.484375 2.21875q-0.484375 1.015625 -1.375 1.5625q-0.890625 0.546875 -1.875 0.546875q-0.796875 0 -1.46875 -0.34375q-0.65625 -0.34375 -1.0 -0.96875q-0.34375 -0.640625 -0.34375 -1.46875zm1.171875 -0.109375q0 0.96875 0.46875 1.484375q0.46875 0.5 1.1875 0.5q0.375 0 0.75 -0.15625q0.375 -0.15625 0.6875 -0.46875q0.328125 -0.3125 0.546875 -0.703125q0.21875 -0.40625 0.359375 -0.875q0.203125 -0.640625 0.203125 -1.234375q0 -0.9375 -0.46875 -1.453125q-0.46875 -0.515625 -1.1875 -0.515625q-0.5625 0 -1.015625 0.265625q-0.453125 0.265625 -0.828125 0.78125q-0.359375 0.5 -0.53125 1.171875q-0.171875 0.671875 -0.171875 1.203125zm6.0218506 2.734375l1.453125 -6.90625l1.0625 0l-0.25 1.203125q0.6875 -0.71875 1.296875 -1.03125q0.609375 -0.328125 1.234375 -0.328125q0.84375 0 1.3125 0.453125q0.484375 0.453125 0.484375 1.21875q0 0.375 -0.171875 1.203125l-0.875 4.1875l-1.171875 0l0.921875 -4.375q0.125 -0.640625 0.125 -0.953125q0 -0.34375 -0.234375 -0.546875q-0.234375 -0.21875 -0.6875 -0.21875q-0.90625 0 -1.609375 0.65625q-0.703125 0.640625 -1.03125 2.21875l-0.671875 3.21875l-1.1875 0zm7.5843506 0l1.25 -6.0l-1.046875 0l0.1875 -0.90625l1.046875 0l0.203125 -0.984375q0.15625 -0.734375 0.3125 -1.0625q0.171875 -0.328125 0.546875 -0.53125q0.375 -0.21875 1.015625 -0.21875q0.453125 0 1.3125 0.1875l-0.21875 1.03125q-0.59375 -0.15625 -1.0 -0.15625q-0.34375 0 -0.53125 0.171875q-0.171875 0.171875 -0.296875 0.8125l-0.15625 0.75l1.3125 0l-0.1875 0.90625l-1.3125 0l-1.265625 6.0l-1.171875 0zm5.2029877 -8.203125l0.28125 -1.34375l1.171875 0l-0.28125 1.34375l-1.171875 0zm-1.71875 8.203125l1.453125 -6.90625l1.171875 0l-1.4375 6.90625l-1.1875 0zm2.945465 0.625l1.1875 0.109375q0 0.40625 0.109375 0.609375q0.109375 0.203125 0.34375 0.3125q0.328125 0.140625 0.828125 0.140625q1.0625 0 1.53125 -0.546875q0.3125 -0.375 0.578125 -1.625l0.109375 -0.5625q-0.921875 0.9375 -1.953125 0.9375q-1.046875 0 -1.75 -0.765625q-0.703125 -0.78125 -0.703125 -2.1875q0 -1.171875 0.546875 -2.140625q0.5625 -0.984375 1.328125 -1.46875q0.765625 -0.5 1.578125 -0.5q1.359375 0 2.09375 1.28125l0.234375 -1.125l1.078125 0l-1.390625 6.671875q-0.21875 1.09375 -0.59375 1.703125q-0.375 0.625 -1.03125 0.953125q-0.65625 0.34375 -1.53125 0.34375q-0.828125 0 -1.4375 -0.21875q-0.59375 -0.203125 -0.890625 -0.625q-0.296875 -0.40625 -0.296875 -0.953125q0 -0.15625 0.03125 -0.34375zm1.46875 -3.6875q0 0.71875 0.140625 1.078125q0.203125 0.5 0.5625 0.765625q0.359375 0.25 0.796875 0.25q0.578125 0 1.140625 -0.40625q0.578125 -0.40625 0.9375 -1.25q0.359375 -0.859375 0.359375 -1.625q0 -0.859375 -0.484375 -1.359375q-0.46875 -0.515625 -1.15625 -0.515625q-0.4375 0 -0.84375 0.234375q-0.390625 0.234375 -0.75 0.703125q-0.34375 0.46875 -0.53125 1.140625q-0.171875 0.65625 -0.171875 0.984375zm10.724976 1.8125q-1.234375 1.40625 -2.546875 1.40625q-0.796875 0 -1.296875 -0.453125q-0.484375 -0.46875 -0.484375 -1.125q0 -0.4375 0.21875 -1.5l0.84375 -3.984375l1.171875 0l-0.921875 4.40625q-0.109375 0.5625 -0.109375 0.859375q0 0.390625 0.234375 0.609375q0.234375 0.21875 0.703125 0.21875q0.484375 0 0.953125 -0.234375q0.484375 -0.234375 0.8125 -0.640625q0.34375 -0.421875 0.5625 -0.984375q0.140625 -0.359375 0.328125 -1.25l0.625 -2.984375l1.1875 0l-1.453125 6.90625l-1.078125 0l0.25 -1.25zm2.6937256 1.25l1.453125 -6.90625l1.03125 0l-0.28125 1.40625q0.53125 -0.796875 1.03125 -1.171875q0.515625 -0.390625 1.046875 -0.390625q0.359375 0 0.875 0.25l-0.484375 1.09375q-0.3125 -0.21875 -0.671875 -0.21875q-0.625 0 -1.28125 0.6875q-0.640625 0.6875 -1.015625 2.484375l-0.578125 2.765625l-1.125 0zm9.110245 -0.859375q-0.625 0.53125 -1.1875 0.78125q-0.5625 0.234375 -1.203125 0.234375q-0.96875 0 -1.5625 -0.5625q-0.578125 -0.5625 -0.578125 -1.4375q0 -0.578125 0.265625 -1.015625q0.265625 -0.453125 0.703125 -0.71875q0.4375 -0.28125 1.0625 -0.390625q0.40625 -0.078125 1.515625 -0.125q1.109375 -0.046875 1.59375 -0.234375q0.125 -0.484375 0.125 -0.8125q0 -0.40625 -0.296875 -0.640625q-0.40625 -0.328125 -1.1875 -0.328125q-0.75 0 -1.21875 0.328125q-0.46875 0.328125 -0.6875 0.9375l-1.1875 -0.109375q0.359375 -1.015625 1.140625 -1.5625q0.796875 -0.546875 2.0 -0.546875q1.28125 0 2.03125 0.609375q0.578125 0.453125 0.578125 1.1875q0 0.546875 -0.15625 1.28125l-0.390625 1.71875q-0.1875 0.8125 -0.1875 1.328125q0 0.328125 0.15625 0.9375l-1.203125 0q-0.09375 -0.34375 -0.125 -0.859375zm0.421875 -2.640625q-0.234375 0.09375 -0.53125 0.15625q-0.28125 0.046875 -0.9375 0.109375q-1.03125 0.078125 -1.453125 0.21875q-0.421875 0.140625 -0.640625 0.453125q-0.21875 0.296875 -0.21875 0.671875q0 0.5 0.34375 0.828125q0.34375 0.3125 0.984375 0.3125q0.578125 0 1.109375 -0.3125q0.546875 -0.3125 0.859375 -0.859375q0.3125 -0.5625 0.484375 -1.578125zm5.0843506 2.546875l-0.203125 0.953125q-0.421875 0.109375 -0.8125 0.109375q-0.703125 0 -1.125 -0.34375q-0.3125 -0.25 -0.3125 -0.703125q0 -0.234375 0.171875 -1.046875l0.828125 -4.015625l-0.921875 0l0.1875 -0.90625l0.9375 0l0.34375 -1.703125l1.359375 -0.8125l-0.53125 2.515625l1.15625 0l-0.1875 0.90625l-1.15625 0l-0.796875 3.8125q-0.15625 0.734375 -0.15625 0.875q0 0.21875 0.109375 0.328125q0.125 0.109375 0.40625 0.109375q0.390625 0 0.703125 -0.078125zm2.6092377 -7.25l0.28125763 -1.34375l1.171875 0l-0.28125 1.34375l-1.1718826 0zm-1.71875 8.203125l1.453125 -6.90625l1.1718826 0l-1.4375076 6.90625l-1.1875 0zm3.2267227 -2.625q0 -2.015625 1.1875 -3.34375q0.984375 -1.09375 2.578125 -1.09375q1.25 0 2.015625 0.78125q0.765625 0.78125 0.765625 2.109375q0 1.1875 -0.484375 2.21875q-0.484375 1.015625 -1.375 1.5625q-0.890625 0.546875 -1.875 0.546875q-0.796875 0 -1.46875 -0.34375q-0.65625 -0.34375 -1.0 -0.96875q-0.34375 -0.640625 -0.34375 -1.46875zm1.171875 -0.109375q0 0.96875 0.46875 1.484375q0.46875 0.5 1.1875 0.5q0.375 0 0.75 -0.15625q0.375 -0.15625 0.6875 -0.46875q0.328125 -0.3125 0.546875 -0.703125q0.21875 -0.40625 0.359375 -0.875q0.203125 -0.640625 0.203125 -1.234375q0 -0.9375 -0.46875 -1.453125q-0.46875 -0.515625 -1.1875 -0.515625q-0.5625 0 -1.015625 0.265625q-0.453125 0.265625 -0.828125 0.78125q-0.359375 0.5 -0.53125 1.171875q-0.171875 0.671875 -0.171875 1.203125zm6.0218506 2.734375l1.453125 -6.90625l1.0625 0l-0.25 1.203125q0.6875 -0.71875 1.296875 -1.03125q0.609375 -0.328125 1.234375 -0.328125q0.84375 0 1.3125 0.453125q0.484375 0.453125 0.484375 1.21875q0 0.375 -0.171875 1.203125l-0.875 4.1875l-1.171875 0l0.921875 -4.375q0.125 -0.640625 0.125 -0.953125q0 -0.34375 -0.234375 -0.546875q-0.234375 -0.21875 -0.6875 -0.21875q-0.90625 0 -1.609375 0.65625q-0.703125 0.640625 -1.03125 2.21875l-0.671875 3.21875l-1.1875 0z" fill-rule="nonzero"/><path fill="#000000" fill-opacity="0.0" d="m55.23213 506.34778l105.41731 0l0 18.141724l-105.41731 0z" fill-rule="evenodd"/><path fill="#000000" d="m64.81025 520.2186l2.0 -9.546875l2.953125 0q0.8125 0 1.203125 0.078125q0.625 0.109375 1.0625 0.390625q0.453125 0.265625 0.6875 0.75q0.25 0.46875 0.25 1.046875q0 0.796875 -0.4375 1.390625q-0.4375 0.59375 -1.328125 0.90625q0.78125 0.265625 1.15625 0.78125q0.390625 0.5 0.390625 1.1875q0 0.78125 -0.453125 1.515625q-0.453125 0.71875 -1.203125 1.109375q-0.734375 0.390625 -1.65625 0.390625l-4.625 0zm2.421875 -5.46875l1.9375 0q1.375 0 1.984375 -0.4375q0.609375 -0.453125 0.609375 -1.296875q0 -0.390625 -0.1875 -0.6875q-0.1875 -0.296875 -0.5 -0.421875q-0.3125 -0.140625 -1.1875 -0.140625l-2.03125 0l-0.625 2.984375zm-0.921875 4.390625l2.171875 0q0.875 0 1.171875 -0.0625q0.609375 -0.109375 0.984375 -0.359375q0.375 -0.25 0.578125 -0.65625q0.21875 -0.40625 0.21875 -0.859375q0 -0.671875 -0.421875 -1.015625q-0.40625 -0.34375 -1.59375 -0.34375l-2.421875 0l-0.6875 3.296875zm8.921005 -7.125l0.28125 -1.34375l1.171875 0l-0.28125 1.34375l-1.171875 0zm-1.71875 8.203125l1.453125 -6.90625l1.171875 0l-1.4375 6.90625l-1.1875 0zm2.914215 0l2.0 -9.546875l1.171875 0l-1.984375 9.546875l-1.1875 0zm2.96109 0l2.0 -9.546875l1.171875 0l-1.984375 9.546875l-1.1875 0zm4.726715 -8.203125l0.28125 -1.34375l1.171875 0l-0.28125 1.34375l-1.171875 0zm-1.71875 8.203125l1.453125 -6.90625l1.171875 0l-1.4375 6.90625l-1.1875 0zm3.007965 0l1.453125 -6.90625l1.0625 0l-0.25 1.203125q0.6875 -0.71875 1.296875 -1.03125q0.609375 -0.328125 1.234375 -0.328125q0.84375 0 1.3125 0.453125q0.484375 0.453125 0.484375 1.21875q0 0.375 -0.171875 1.203125l-0.875 4.1875l-1.171875 0l0.921875 -4.375q0.125 -0.640625 0.125 -0.953125q0 -0.34375 -0.234375 -0.546875q-0.234375 -0.21875 -0.6875 -0.21875q-0.90625 0 -1.609375 0.65625q-0.703125 0.640625 -1.03125 2.21875l-0.671875 3.21875l-1.1875 0zm7.3499756 0.625l1.1875 0.109375q0 0.40625 0.109375 0.609375q0.109375 0.203125 0.34375 0.3125q0.328125 0.140625 0.828125 0.140625q1.0625 0 1.53125 -0.546875q0.3125 -0.375 0.578125 -1.625l0.109375 -0.5625q-0.921875 0.9375 -1.953125 0.9375q-1.046875 0 -1.75 -0.765625q-0.703125 -0.78125 -0.703125 -2.1875q0 -1.171875 0.546875 -2.140625q0.5625 -0.984375 1.328125 -1.46875q0.765625 -0.5 1.578125 -0.5q1.359375 0 2.09375 1.28125l0.234375 -1.125l1.078125 0l-1.390625 6.671875q-0.21875 1.09375 -0.59375 1.703125q-0.375 0.625 -1.03125 0.953125q-0.65625 0.34375 -1.53125 0.34375q-0.828125 0 -1.4375 -0.21875q-0.59375 -0.203125 -0.890625 -0.625q-0.296875 -0.40625 -0.296875 -0.953125q0 -0.15625 0.03125 -0.34375zm1.46875 -3.6875q0 0.71875 0.140625 1.078125q0.203125 0.5 0.5625 0.765625q0.359375 0.25 0.796875 0.25q0.578125 0 1.140625 -0.40625q0.578125 -0.40625 0.9375 -1.25q0.359375 -0.859375 0.359375 -1.625q0 -0.859375 -0.484375 -1.359375q-0.46875 -0.515625 -1.15625 -0.515625q-0.4375 0 -0.84375 0.234375q-0.390625 0.234375 -0.75 0.703125q-0.34375 0.46875 -0.53125 1.140625q-0.171875 0.65625 -0.171875 0.984375z" fill-rule="nonzero"/><path fill="#000000" fill-opacity="0.0" d="m55.678467 525.0801l100.85039 0l0 18.141724l-100.85039 0z" fill-rule="evenodd"/><path fill="#000000" d="m65.33472 538.9509l2.0 -9.546875l1.234375 0l1.609375 3.578125q0.734375 1.640625 1.15625 2.765625q0.25 0.65625 0.578125 1.765625q0.171875 -1.21875 0.4375 -2.5l1.171875 -5.609375l1.25 0l-2.0 9.546875l-1.265625 0l-2.359375 -5.515625q-0.640625 -1.453125 -0.984375 -2.5625q-0.09375 0.921875 -0.375 2.28125l-1.21875 5.796875l-1.234375 0zm14.125153 -1.25q-1.234375 1.40625 -2.546875 1.40625q-0.796875 0 -1.296875 -0.453125q-0.484375 -0.46875 -0.484375 -1.125q0 -0.4375 0.21875 -1.5l0.84375 -3.984375l1.171875 0l-0.921875 4.40625q-0.109375 0.5625 -0.109375 0.859375q0 0.390625 0.234375 0.609375q0.234375 0.21875 0.703125 0.21875q0.484375 0 0.953125 -0.234375q0.484375 -0.234375 0.8125 -0.640625q0.34375 -0.421875 0.5625 -0.984375q0.140625 -0.359375 0.328125 -1.25l0.625 -2.984375l1.1875 0l-1.453125 6.90625l-1.078125 0l0.25 -1.25zm2.6937256 1.25l1.4375 -6.90625l1.1875 0l-0.25 1.140625q0.65625 -0.75 1.171875 -1.015625q0.53125 -0.28125 1.125 -0.28125q0.65625 0 1.078125 0.34375q0.4375 0.328125 0.578125 0.953125q0.515625 -0.65625 1.09375 -0.96875q0.59375 -0.328125 1.234375 -0.328125q0.875 0 1.296875 0.40625q0.4375 0.40625 0.4375 1.15625q0 0.3125 -0.15625 1.046875l-0.921875 4.453125l-1.171875 0l0.9375 -4.5625q0.125 -0.5625 0.125 -0.8125q0 -0.328125 -0.21875 -0.515625q-0.203125 -0.203125 -0.59375 -0.203125q-0.53125 0 -1.078125 0.328125q-0.546875 0.3125 -0.859375 0.828125q-0.296875 0.515625 -0.515625 1.59375l-0.703125 3.34375l-1.1875 0l0.984375 -4.671875q0.109375 -0.46875 0.109375 -0.671875q0 -0.34375 -0.21875 -0.546875q-0.21875 -0.203125 -0.546875 -0.203125q-0.5 0 -1.0625 0.328125q-0.546875 0.3125 -0.890625 0.875q-0.34375 0.5625 -0.5625 1.625l-0.6875 3.265625l-1.171875 0zm11.102432 0l2.0 -9.546875l1.171875 0l-0.703125 3.421875q0.5625 -0.515625 1.015625 -0.71875q0.453125 -0.21875 0.953125 -0.21875q0.96875 0 1.609375 0.71875q0.640625 0.71875 0.640625 2.09375q0 0.921875 -0.265625 1.6875q-0.25 0.765625 -0.640625 1.28125q-0.375 0.515625 -0.78125 0.828125q-0.40625 0.296875 -0.84375 0.453125q-0.421875 0.15625 -0.828125 0.15625q-0.6875 0 -1.203125 -0.359375q-0.515625 -0.359375 -0.8125 -1.109375l-0.265625 1.3125l-1.046875 0zm1.75 -2.84375l0 0.234375q0 0.875 0.421875 1.34375q0.421875 0.453125 1.046875 0.453125q0.625 0 1.140625 -0.421875q0.515625 -0.4375 0.84375 -1.34375q0.328125 -0.921875 0.328125 -1.703125q0 -0.875 -0.421875 -1.359375q-0.40625 -0.484375 -1.03125 -0.484375q-0.640625 0 -1.171875 0.5q-0.53125 0.484375 -0.890625 1.515625q-0.265625 0.765625 -0.265625 1.265625zm10.740601 0.5l1.15625 0.109375q-0.25 0.859375 -1.140625 1.625q-0.890625 0.765625 -2.125 0.765625q-0.765625 0 -1.40625 -0.34375q-0.640625 -0.359375 -0.984375 -1.03125q-0.328125 -0.6875 -0.328125 -1.546875q0 -1.140625 0.515625 -2.203125q0.53125 -1.0625 1.359375 -1.578125q0.84375 -0.515625 1.8125 -0.515625q1.234375 0 1.96875 0.765625q0.75 0.765625 0.75 2.09375q0 0.5 -0.09375 1.046875l-5.09375 0q-0.03125 0.1875 -0.03125 0.359375q0 0.96875 0.4375 1.484375q0.453125 0.5 1.109375 0.5q0.59375 0 1.171875 -0.390625q0.59375 -0.390625 0.921875 -1.140625zm-3.421875 -1.71875l3.875 0q0.015625 -0.1875 0.015625 -0.265625q0 -0.875 -0.453125 -1.34375q-0.4375 -0.484375 -1.125 -0.484375q-0.765625 0 -1.390625 0.53125q-0.609375 0.515625 -0.921875 1.5625zm5.7562256 4.0625l1.453125 -6.90625l1.03125 0l-0.28125 1.40625q0.53125 -0.796875 1.03125 -1.171875q0.515625 -0.390625 1.046875 -0.390625q0.359375 0 0.875 0.25l-0.484375 1.09375q-0.3125 -0.21875 -0.671875 -0.21875q-0.625 0 -1.28125 0.6875q-0.640625 0.6875 -1.015625 2.484375l-0.578125 2.765625l-1.125 0zm4.5477448 -2.359375l1.1875 -0.078125q0 0.515625 0.15625 0.875q0.15625 0.359375 0.578125 0.59375q0.421875 0.21875 0.96875 0.21875q0.78125 0 1.171875 -0.3125q0.390625 -0.3125 0.390625 -0.734375q0 -0.3125 -0.234375 -0.578125q-0.234375 -0.28125 -1.171875 -0.671875q-0.9375 -0.40625 -1.1875 -0.578125q-0.4375 -0.265625 -0.671875 -0.625q-0.21875 -0.359375 -0.21875 -0.828125q0 -0.8125 0.65625 -1.390625q0.65625 -0.59375 1.828125 -0.59375q1.296875 0 1.96875 0.609375q0.6875 0.59375 0.71875 1.578125l-1.15625 0.078125q-0.03125 -0.625 -0.453125 -0.984375q-0.40625 -0.375 -1.171875 -0.375q-0.609375 0 -0.953125 0.28125q-0.328125 0.28125 -0.328125 0.609375q0 0.3125 0.296875 0.5625q0.1875 0.171875 1.0 0.53125q1.359375 0.578125 1.703125 0.921875q0.5625 0.53125 0.5625 1.3125q0 0.515625 -0.3125 1.015625q-0.3125 0.484375 -0.96875 0.78125q-0.640625 0.296875 -1.515625 0.296875q-1.203125 0 -2.046875 -0.59375q-0.84375 -0.59375 -0.796875 -1.921875z" fill-rule="nonzero"/><path fill="#000000" fill-opacity="0.0" d="m40.07349 492.64966l0 0c0 -1.032135 0.8366928 -1.8688049 1.8688049 -1.8688049l7.474991 0l0 0c0.495636 0 0.97097397 0.1968689 1.3214417 0.54733276c0.3504715 0.35049438 0.5473633 0.82580566 0.5473633 1.3214722l0 8.073395c0 1.0321045 -0.8366928 1.8688049 -1.8688049 1.8688049l-7.474991 0c-1.0321121 0 -1.8688049 -0.83670044 -1.8688049 -1.8688049z" fill-rule="evenodd"/><path stroke="#666666" stroke-width="3.0" stroke-linejoin="round" stroke-linecap="butt" d="m40.07349 492.64966l0 0c0 -1.032135 0.8366928 -1.8688049 1.8688049 -1.8688049l7.474991 0l0 0c0.495636 0 0.97097397 0.1968689 1.3214417 0.54733276c0.3504715 0.35049438 0.5473633 0.82580566 0.5473633 1.3214722l0 8.073395c0 1.0321045 -0.8366928 1.8688049 -1.8688049 1.8688049l-7.474991 0c-1.0321121 0 -1.8688049 -0.83670044 -1.8688049 -1.8688049z" fill-rule="evenodd"/><path fill="#000000" fill-opacity="0.0" d="m40.07349 511.38193l0 0c0 -1.0321045 0.8366928 -1.8688049 1.8688049 -1.8688049l7.474991 0l0 0c0.495636 0 0.97097397 0.19689941 1.3214417 0.5473633c0.3504715 0.35046387 0.5473633 0.82580566 0.5473633 1.3214417l0 8.073395c0 1.0321045 -0.8366928 1.8688354 -1.8688049 1.8688354l-7.474991 0c-1.0321121 0 -1.8688049 -0.83673096 -1.8688049 -1.8688354z" fill-rule="evenodd"/><path stroke="#666666" stroke-width="3.0" stroke-linejoin="round" stroke-linecap="butt" d="m40.07349 511.38193l0 0c0 -1.0321045 0.8366928 -1.8688049 1.8688049 -1.8688049l7.474991 0l0 0c0.495636 0 0.97097397 0.19689941 1.3214417 0.5473633c0.3504715 0.35046387 0.5473633 0.82580566 0.5473633 1.3214417l0 8.073395c0 1.0321045 -0.8366928 1.8688354 -1.8688049 1.8688354l-7.474991 0c-1.0321121 0 -1.8688049 -0.83673096 -1.8688049 -1.8688354z" fill-rule="evenodd"/><path fill="#000000" fill-opacity="0.0" d="m40.07349 530.1142l0 0c0 -1.0321045 0.8366928 -1.8687744 1.8688049 -1.8687744l7.474991 0l0 0c0.495636 0 0.97097397 0.19689941 1.3214417 0.5473633c0.3504715 0.35046387 0.5473633 0.82580566 0.5473633 1.3214111l0 8.073425c0 1.0321045 -0.8366928 1.8688354 -1.8688049 1.8688354l-7.474991 0c-1.0321121 0 -1.8688049 -0.83673096 -1.8688049 -1.8688354z" fill-rule="evenodd"/><path stroke="#666666" stroke-width="3.0" stroke-linejoin="round" stroke-linecap="butt" d="m40.07349 530.1142l0 0c0 -1.0321045 0.8366928 -1.8687744 1.8688049 -1.8687744l7.474991 0l0 0c0.495636 0 0.97097397 0.19689941 1.3214417 0.5473633c0.3504715 0.35046387 0.5473633 0.82580566 0.5473633 1.3214111l0 8.073425c0 1.0321045 -0.8366928 1.8688354 -1.8688049 1.8688354l-7.474991 0c-1.0321121 0 -1.8688049 -0.83673096 -1.8688049 -1.8688354z" fill-rule="evenodd"/><path fill="#000000" fill-opacity="0.0" d="m75.28609 556.1916l139.74803 0l0 87.90552l-139.74803 0z" fill-rule="evenodd"/><path stroke="#595959" stroke-width="1.0" stroke-linejoin="round" stroke-linecap="butt" stroke-dasharray="4.0,3.0" d="m75.28609 556.1916l139.74803 0l0 87.90552l-139.74803 0z" fill-rule="evenodd"/><path fill="#f3f3f3" d="m78.13911 563.5368l0 0c0 -1.8844604 1.5276718 -3.4121094 3.41214 -3.4121094l125.17571 0c0.90496826 0 1.7728577 0.35949707 2.4127502 0.99938965c0.63990784 0.6398926 0.9994049 1.5077515 0.9994049 2.4127197l0 13.648193c0 1.8844604 -1.5276794 3.4121094 -3.4121552 3.4121094l-125.17571 0c-1.8844681 0 -3.41214 -1.5276489 -3.41214 -3.4121094z" fill-rule="evenodd"/><path fill="#000000" d="m119.308945 567.1609l3.65625 -9.546875l1.359375 0l3.90625 9.546875l-1.4375 0l-1.109375 -2.890625l-3.984375 0l-1.046875 2.890625l-1.34375 0zm2.75 -3.921875l3.234375 0l-1.0 -2.640625q-0.453125 -1.203125 -0.671875 -1.96875q-0.1875 0.90625 -0.515625 1.8125l-1.046875 2.796875zm7.1866302 3.921875l0 -9.546875l3.59375 0q0.953125 0 1.453125 0.09375q0.703125 0.125 1.171875 0.453125q0.484375 0.328125 0.765625 0.921875q0.296875 0.59375 0.296875 1.296875q0 1.21875 -0.78125 2.0625q-0.765625 0.84375 -2.796875 0.84375l-2.4375 0l0 3.875l-1.265625 0zm1.265625 -5.0l2.453125 0q1.234375 0 1.75 -0.453125q0.515625 -0.46875 0.515625 -1.28125q0 -0.609375 -0.3125 -1.03125q-0.296875 -0.421875 -0.796875 -0.5625q-0.3125 -0.09375 -1.171875 -0.09375l-2.4375 0l0 3.421875zm7.8428802 5.0l0 -9.546875l1.25 0l0 9.546875l-1.25 0zm7.0466003 0l0 -9.546875l1.171875 0l0 5.453125l2.765625 -2.8125l1.515625 0l-2.640625 2.5625l2.90625 4.34375l-1.4375 0l-2.28125 -3.53125l-0.828125 0.796875l0 2.734375l-1.171875 0zm11.3828125 -2.21875l1.203125 0.140625q-0.28125 1.0625 -1.0625 1.65625q-0.765625 0.578125 -1.96875 0.578125q-1.515625 0 -2.40625 -0.9375q-0.890625 -0.9375 -0.890625 -2.609375q0 -1.75 0.890625 -2.703125q0.90625 -0.96875 2.34375 -0.96875q1.390625 0 2.265625 0.9375q0.875 0.9375 0.875 2.65625q0 0.109375 0 0.3125l-5.15625 0q0.0625 1.140625 0.640625 1.75q0.578125 0.59375 1.4375 0.59375q0.65625 0 1.109375 -0.328125q0.453125 -0.34375 0.71875 -1.078125zm-3.84375 -1.90625l3.859375 0q-0.078125 -0.859375 -0.4375 -1.296875q-0.5625 -0.6875 -1.453125 -0.6875q-0.8125 0 -1.359375 0.546875q-0.546875 0.53125 -0.609375 1.4375zm6.4749756 6.78125l-0.125 -1.09375q0.375 0.109375 0.65625 0.109375q0.390625 0 0.625 -0.140625q0.234375 -0.125 0.390625 -0.359375q0.109375 -0.171875 0.359375 -0.875q0.03125 -0.09375 0.109375 -0.28125l-2.625 -6.921875l1.265625 0l1.4375 4.0q0.28125 0.765625 0.5 1.59375q0.203125 -0.796875 0.46875 -1.578125l1.484375 -4.015625l1.171875 0l-2.625 7.015625q-0.421875 1.140625 -0.65625 1.578125q-0.3125 0.578125 -0.71875 0.84375q-0.40625 0.28125 -0.96875 0.28125q-0.328125 0 -0.75 -0.15625zm7.0390625 -8.234375l0 -1.328125l1.328125 0l0 1.328125l-1.328125 0zm0 5.578125l0 -1.328125l1.328125 0l0 1.328125l-1.328125 0z" fill-rule="nonzero"/><path fill="#000000" d="m115.03608 580.6609l1.234375 -0.109375q0.140625 0.90625 0.640625 1.359375q0.5 0.453125 1.203125 0.453125q0.84375 0 1.421875 -0.640625q0.59375 -0.640625 0.59375 -1.6875q0 -1.0 -0.5625 -1.578125q-0.5625 -0.59375 -1.484375 -0.59375q-0.5625 0 -1.015625 0.265625q-0.453125 0.25 -0.71875 0.671875l-1.09375 -0.15625l0.921875 -4.890625l4.75 0l0 1.109375l-3.8125 0l-0.515625 2.5625q0.859375 -0.59375 1.796875 -0.59375q1.25 0 2.109375 0.875q0.859375 0.859375 0.859375 2.21875q0 1.296875 -0.75 2.234375q-0.921875 1.15625 -2.5 1.15625q-1.3125 0 -2.140625 -0.71875q-0.8125 -0.734375 -0.9375 -1.9375zm12.256226 1.640625q-0.65625 0.5625 -1.265625 0.796875q-0.59375 0.21875 -1.28125 0.21875q-1.140625 0 -1.75 -0.546875q-0.609375 -0.5625 -0.609375 -1.4375q0 -0.5 0.21875 -0.921875q0.234375 -0.421875 0.609375 -0.671875q0.375 -0.25 0.84375 -0.390625q0.34375 -0.078125 1.046875 -0.171875q1.421875 -0.171875 2.09375 -0.40625q0 -0.234375 0 -0.296875q0 -0.71875 -0.328125 -1.015625q-0.453125 -0.390625 -1.34375 -0.390625q-0.8125 0 -1.21875 0.296875q-0.390625 0.28125 -0.578125 1.015625l-1.140625 -0.15625q0.15625 -0.734375 0.515625 -1.1875q0.359375 -0.453125 1.03125 -0.6875q0.671875 -0.25 1.5625 -0.25q0.890625 0 1.4375 0.203125q0.5625 0.203125 0.8125 0.53125q0.26563263 0.3125 0.37500763 0.796875q0.046875 0.296875 0.046875 1.078125l0 1.5625q0 1.625 0.078125 2.0625q0.078125 0.4375 0.296875 0.828125l-1.2187576 0q-0.1875 -0.359375 -0.234375 -0.859375zm-0.09375 -2.609375q-0.640625 0.265625 -1.921875 0.4375q-0.71875 0.109375 -1.015625 0.25q-0.296875 0.125 -0.46875 0.375q-0.15625 0.25 -0.15625 0.546875q0 0.46875 0.34375 0.78125q0.359375 0.3125 1.046875 0.3125q0.671875 0 1.203125 -0.296875q0.53125 -0.296875 0.78125 -0.8125q0.1875 -0.390625 0.1875 -1.171875l0 -0.421875zm7.084358 3.46875l-1.171875 0l0 -7.46875q-0.421875 0.40625 -1.109375 0.8125q-0.6875 0.40625 -1.234375 0.609375l0 -1.140625q0.984375 -0.453125 1.71875 -1.109375q0.734375 -0.671875 1.03125 -1.28125l0.765625 0l0 9.578125zm4.8031006 -5.171875q-0.734375 -0.265625 -1.09375 -0.765625q-0.34375 -0.5 -0.34375 -1.1875q0 -1.03125 0.75 -1.734375q0.75 -0.71875 1.984375 -0.71875q1.25 0 2.015625 0.734375q0.765625 0.71875 0.765625 1.75q0 0.671875 -0.359375 1.171875q-0.34375 0.484375 -1.046875 0.75q0.875 0.28125 1.328125 0.921875q0.46875 0.640625 0.46875 1.515625q0 1.234375 -0.875 2.0625q-0.859375 0.828125 -2.265625 0.828125q-1.421875 0 -2.28125 -0.828125q-0.859375 -0.84375 -0.859375 -2.09375q0 -0.921875 0.46875 -1.546875q0.46875 -0.640625 1.34375 -0.859375zm-0.234375 -1.984375q0 0.671875 0.4375 1.109375q0.4375 0.421875 1.125 0.421875q0.671875 0 1.109375 -0.421875q0.4375 -0.421875 0.4375 -1.046875q0 -0.640625 -0.453125 -1.078125q-0.4375 -0.4375 -1.109375 -0.4375q-0.671875 0 -1.109375 0.4375q-0.4375 0.421875 -0.4375 1.015625zm-0.375 4.40625q0 0.5 0.234375 0.96875q0.234375 0.46875 0.703125 0.734375q0.46875 0.25 1.015625 0.25q0.828125 0 1.375 -0.53125q0.546875 -0.546875 0.546875 -1.390625q0 -0.84375 -0.5625 -1.390625q-0.5625 -0.5625 -1.40625 -0.5625q-0.828125 0 -1.375 0.546875q-0.53125 0.546875 -0.53125 1.375zm6.2093506 -1.953125q0 -1.6875 0.34375 -2.71875q0.359375 -1.03125 1.046875 -1.59375q0.6875 -0.5625 1.71875 -0.5625q0.78125 0 1.359375 0.3125q0.578125 0.296875 0.953125 0.890625q0.375 0.578125 0.59375 1.421875q0.21875 0.828125 0.21875 2.25q0 1.671875 -0.359375 2.703125q-0.34375 1.03125 -1.03125 1.59375q-0.671875 0.5625 -1.734375 0.5625q-1.375 0 -2.15625 -0.984375q-0.953125 -1.1875 -0.953125 -3.875zm1.203125 0q0 2.34375 0.546875 3.125q0.5625 0.78125 1.359375 0.78125q0.8125 0 1.359375 -0.78125q0.5625 -0.78125 0.5625 -3.125q0 -2.359375 -0.5625 -3.125q-0.546875 -0.78125 -1.359375 -0.78125q-0.8125 0 -1.296875 0.6875q-0.609375 0.875 -0.609375 3.21875zm6.2093506 0q0 -1.6875 0.34375 -2.71875q0.359375 -1.03125 1.046875 -1.59375q0.6875 -0.5625 1.71875 -0.5625q0.78125 0 1.359375 0.3125q0.578125 0.296875 0.953125 0.890625q0.375 0.578125 0.59375 1.421875q0.21875 0.828125 0.21875 2.25q0 1.671875 -0.359375 2.703125q-0.34375 1.03125 -1.03125 1.59375q-0.671875 0.5625 -1.734375 0.5625q-1.375 0 -2.15625 -0.984375q-0.953125 -1.1875 -0.953125 -3.875zm1.203125 0q0 2.34375 0.546875 3.125q0.5625 0.78125 1.359375 0.78125q0.8125 0 1.359375 -0.78125q0.5625 -0.78125 0.5625 -3.125q0 -2.359375 -0.5625 -3.125q-0.546875 -0.78125 -1.359375 -0.78125q-0.8125 0 -1.296875 0.6875q-0.609375 0.875 -0.609375 3.21875zm11.271851 2.484375l1.203125 0.140625q-0.28125 1.0625 -1.0625 1.65625q-0.765625 0.578125 -1.96875 0.578125q-1.515625 0 -2.40625 -0.9375q-0.890625 -0.9375 -0.890625 -2.609375q0 -1.75 0.890625 -2.703125q0.90625 -0.96875 2.34375 -0.96875q1.390625 0 2.265625 0.9375q0.875 0.9375 0.875 2.65625q0 0.109375 0 0.3125l-5.15625 0q0.0625 1.140625 0.640625 1.75q0.578125 0.59375 1.4375 0.59375q0.65625 0 1.109375 -0.328125q0.453125 -0.34375 0.71875 -1.078125zm-3.84375 -1.90625l3.859375 0q-0.078125 -0.859375 -0.4375 -1.296875q-0.5625 -0.6875 -1.453125 -0.6875q-0.8125 0 -1.359375 0.546875q-0.546875 0.53125 -0.609375 1.4375zm11.006226 4.125l0 -0.875q-0.65625 1.03125 -1.9375 1.03125q-0.8125 0 -1.515625 -0.453125q-0.6875 -0.453125 -1.078125 -1.265625q-0.375 -0.828125 -0.375 -1.890625q0 -1.03125 0.34375 -1.875q0.34375 -0.84375 1.03125 -1.28125q0.703125 -0.453125 1.546875 -0.453125q0.625 0 1.109375 0.265625q0.5 0.25 0.796875 0.671875l0 -3.421875l1.171875 0l0 9.546875l-1.09375 0zm-3.703125 -3.453125q0 1.328125 0.5625 1.984375q0.5625 0.65625 1.328125 0.65625q0.765625 0 1.296875 -0.625q0.53125 -0.625 0.53125 -1.90625q0 -1.421875 -0.546875 -2.078125q-0.546875 -0.671875 -1.34375 -0.671875q-0.78125 0 -1.3125 0.640625q-0.515625 0.625 -0.515625 2.0z" fill-rule="nonzero"/><path fill="#000000" fill-opacity="0.0" d="m104.734764 585.2467l105.41732 0l0 18.141724l-105.41732 0z" fill-rule="evenodd"/><path fill="#000000" d="m121.766014 595.7582l1.265625 0.171875q-0.59375 1.65625 -1.75 2.5q-1.140625 0.84375 -2.5625 0.84375q-1.734375 0 -2.765625 -1.046875q-1.015625 -1.0625 -1.015625 -3.046875q0 -2.578125 1.5625 -4.265625q1.375 -1.5 3.421875 -1.5q1.515625 0 2.453125 0.8125q0.953125 0.8125 1.09375 2.1875l-1.1875 0.109375q-0.1875 -1.03125 -0.78125 -1.546875q-0.59375 -0.515625 -1.515625 -0.515625q-1.75 0 -2.828125 1.5625q-0.9375 1.34375 -0.9375 3.1875q0 1.46875 0.71875 2.25q0.71875 0.765625 1.875 0.765625q1.0 0 1.796875 -0.640625q0.796875 -0.65625 1.15625 -1.828125zm2.2501526 0.734375q0 -2.015625 1.1875 -3.34375q0.984375 -1.09375 2.578125 -1.09375q1.2500076 0 2.0156326 0.78125q0.765625 0.78125 0.765625 2.109375q0 1.1875 -0.484375 2.21875q-0.484375 1.015625 -1.375 1.5625q-0.8906326 0.546875 -1.8750076 0.546875q-0.796875 0 -1.46875 -0.34375q-0.65625 -0.34375 -1.0 -0.96875q-0.34375 -0.640625 -0.34375 -1.46875zm1.171875 -0.109375q0 0.96875 0.46875 1.484375q0.46875 0.5 1.1875 0.5q0.375 0 0.75 -0.15625q0.375 -0.15625 0.6875076 -0.46875q0.328125 -0.3125 0.546875 -0.703125q0.21875 -0.40625 0.359375 -0.875q0.203125 -0.640625 0.203125 -1.234375q0 -0.9375 -0.46875 -1.453125q-0.46875 -0.515625 -1.1875076 -0.515625q-0.5625 0 -1.015625 0.265625q-0.453125 0.265625 -0.828125 0.78125q-0.359375 0.5 -0.53125 1.171875q-0.171875 0.671875 -0.171875 1.203125zm6.021858 2.734375l1.453125 -6.90625l1.0625 0l-0.25 1.203125q0.6875 -0.71875 1.296875 -1.03125q0.609375 -0.328125 1.234375 -0.328125q0.84375 0 1.3125 0.453125q0.484375 0.453125 0.484375 1.21875q0 0.375 -0.171875 1.203125l-0.875 4.1875l-1.171875 0l0.921875 -4.375q0.125 -0.640625 0.125 -0.953125q0 -0.34375 -0.234375 -0.546875q-0.234375 -0.21875 -0.6875 -0.21875q-0.90625 0 -1.609375 0.65625q-0.703125 0.640625 -1.03125 2.21875l-0.671875 3.21875l-1.1875 0zm7.5843506 0l1.25 -6.0l-1.046875 0l0.1875 -0.90625l1.046875 0l0.203125 -0.984375q0.15625 -0.734375 0.3125 -1.0625q0.171875 -0.328125 0.546875 -0.53125q0.375 -0.21875 1.015625 -0.21875q0.453125 0 1.3125 0.1875l-0.21875 1.03125q-0.59375 -0.15625 -1.0 -0.15625q-0.34375 0 -0.53125 0.171875q-0.171875 0.171875 -0.296875 0.8125l-0.15625 0.75l1.3125 0l-0.1875 0.90625l-1.3125 0l-1.265625 6.0l-1.171875 0zm5.2029877 -8.203125l0.28125 -1.34375l1.171875 0l-0.28125 1.34375l-1.171875 0zm-1.71875 8.203125l1.453125 -6.90625l1.171875 0l-1.4375 6.90625l-1.1875 0zm2.945465 0.625l1.1875 0.109375q0 0.40625 0.109375 0.609375q0.109375 0.203125 0.34375 0.3125q0.328125 0.140625 0.828125 0.140625q1.0625 0 1.53125 -0.546875q0.3125 -0.375 0.578125 -1.625l0.109375 -0.5625q-0.921875 0.9375 -1.953125 0.9375q-1.046875 0 -1.75 -0.765625q-0.703125 -0.78125 -0.703125 -2.1875q0 -1.171875 0.546875 -2.140625q0.5625 -0.984375 1.328125 -1.46875q0.765625 -0.5 1.578125 -0.5q1.359375 0 2.09375 1.28125l0.234375 -1.125l1.078125 0l-1.390625 6.671875q-0.21875 1.09375 -0.59375 1.703125q-0.375 0.625 -1.03125 0.953125q-0.65625 0.34375 -1.53125 0.34375q-0.828125 0 -1.4375 -0.21875q-0.59375 -0.203125 -0.890625 -0.625q-0.296875 -0.40625 -0.296875 -0.953125q0 -0.15625 0.03125 -0.34375zm1.46875 -3.6875q0 0.71875 0.140625 1.078125q0.203125 0.5 0.5625 0.765625q0.359375 0.25 0.796875 0.25q0.578125 0 1.140625 -0.40625q0.578125 -0.40625 0.9375 -1.25q0.359375 -0.859375 0.359375 -1.625q0 -0.859375 -0.484375 -1.359375q-0.46875 -0.515625 -1.15625 -0.515625q-0.4375 0 -0.84375 0.234375q-0.390625 0.234375 -0.75 0.703125q-0.34375 0.46875 -0.53125 1.140625q-0.171875 0.65625 -0.171875 0.984375zm10.724976 1.8125q-1.234375 1.40625 -2.546875 1.40625q-0.796875 0 -1.296875 -0.453125q-0.484375 -0.46875 -0.484375 -1.125q0 -0.4375 0.21875 -1.5l0.84375 -3.984375l1.171875 0l-0.921875 4.40625q-0.109375 0.5625 -0.109375 0.859375q0 0.390625 0.234375 0.609375q0.234375 0.21875 0.703125 0.21875q0.484375 0 0.953125 -0.234375q0.484375 -0.234375 0.8125 -0.640625q0.34375 -0.421875 0.5625 -0.984375q0.140625 -0.359375 0.328125 -1.25l0.625 -2.984375l1.1875 0l-1.453125 6.90625l-1.078125 0l0.25 -1.25zm2.6937256 1.25l1.453125 -6.90625l1.03125 0l-0.28125 1.40625q0.53125 -0.796875 1.03125 -1.171875q0.515625 -0.390625 1.046875 -0.390625q0.359375 0 0.875 0.25l-0.484375 1.09375q-0.3125 -0.21875 -0.671875 -0.21875q-0.625 0 -1.28125 0.6875q-0.640625 0.6875 -1.015625 2.484375l-0.578125 2.765625l-1.125 0zm9.110245 -0.859375q-0.625 0.53125 -1.1875 0.78125q-0.5625 0.234375 -1.203125 0.234375q-0.96875 0 -1.5625 -0.5625q-0.578125 -0.5625 -0.578125 -1.4375q0 -0.578125 0.265625 -1.015625q0.265625 -0.453125 0.703125 -0.71875q0.4375 -0.28125 1.0625 -0.390625q0.40625 -0.078125 1.515625 -0.125q1.109375 -0.046875 1.59375 -0.234375q0.125 -0.484375 0.125 -0.8125q0 -0.40625 -0.296875 -0.640625q-0.40625 -0.328125 -1.1875 -0.328125q-0.75 0 -1.21875 0.328125q-0.46875 0.328125 -0.6875 0.9375l-1.1875 -0.109375q0.359375 -1.015625 1.140625 -1.5625q0.796875 -0.546875 2.0 -0.546875q1.28125 0 2.03125 0.609375q0.578125 0.453125 0.578125 1.1875q0 0.546875 -0.15625 1.28125l-0.390625 1.71875q-0.1875 0.8125 -0.1875 1.328125q0 0.328125 0.15625 0.9375l-1.203125 0q-0.09375 -0.34375 -0.125 -0.859375zm0.421875 -2.640625q-0.234375 0.09375 -0.53125 0.15625q-0.28125 0.046875 -0.9375 0.109375q-1.03125 0.078125 -1.453125 0.21875q-0.421875 0.140625 -0.640625 0.453125q-0.21875 0.296875 -0.21875 0.671875q0 0.5 0.34375 0.828125q0.34375 0.3125 0.984375 0.3125q0.578125 0 1.109375 -0.3125q0.546875 -0.3125 0.859375 -0.859375q0.3125 -0.5625 0.484375 -1.578125zm5.0843506 2.546875l-0.203125 0.953125q-0.421875 0.109375 -0.8125 0.109375q-0.703125 0 -1.125 -0.34375q-0.3125 -0.25 -0.3125 -0.703125q0 -0.234375 0.171875 -1.046875l0.828125 -4.015625l-0.921875 0l0.1875 -0.90625l0.9375 0l0.34375 -1.703125l1.359375 -0.8125l-0.53125 2.515625l1.15625 0l-0.1875 0.90625l-1.15625 0l-0.796875 3.8125q-0.15625 0.734375 -0.15625 0.875q0 0.21875 0.109375 0.328125q0.125 0.109375 0.40625 0.109375q0.390625 0 0.703125 -0.078125zm2.6092377 -7.25l0.28125 -1.34375l1.171875 0l-0.28125 1.34375l-1.171875 0zm-1.71875 8.203125l1.453125 -6.90625l1.171875 0l-1.4375 6.90625l-1.1875 0zm3.226715 -2.625q0 -2.015625 1.1875 -3.34375q0.984375 -1.09375 2.578125 -1.09375q1.25 0 2.015625 0.78125q0.765625 0.78125 0.765625 2.109375q0 1.1875 -0.484375 2.21875q-0.484375 1.015625 -1.375 1.5625q-0.890625 0.546875 -1.875 0.546875q-0.796875 0 -1.46875 -0.34375q-0.65625 -0.34375 -1.0 -0.96875q-0.34375 -0.640625 -0.34375 -1.46875zm1.171875 -0.109375q0 0.96875 0.46875 1.484375q0.46875 0.5 1.1875 0.5q0.375 0 0.75 -0.15625q0.375 -0.15625 0.6875 -0.46875q0.328125 -0.3125 0.546875 -0.703125q0.21875 -0.40625 0.359375 -0.875q0.203125 -0.640625 0.203125 -1.234375q0 -0.9375 -0.46875 -1.453125q-0.46875 -0.515625 -1.1875 -0.515625q-0.5625 0 -1.015625 0.265625q-0.453125 0.265625 -0.828125 0.78125q-0.359375 0.5 -0.53125 1.171875q-0.171875 0.671875 -0.171875 1.203125zm6.0218506 2.734375l1.453125 -6.90625l1.0625 0l-0.25 1.203125q0.6875 -0.71875 1.296875 -1.03125q0.609375 -0.328125 1.234375 -0.328125q0.84375 0 1.3125 0.453125q0.484375 0.453125 0.484375 1.21875q0 0.375 -0.171875 1.203125l-0.875 4.1875l-1.171875 0l0.921875 -4.375q0.125 -0.640625 0.125 -0.953125q0 -0.34375 -0.234375 -0.546875q-0.234375 -0.21875 -0.6875 -0.21875q-0.90625 0 -1.609375 0.65625q-0.703125 0.640625 -1.03125 2.21875l-0.671875 3.21875l-1.1875 0z" fill-rule="nonzero"/><path fill="#000000" fill-opacity="0.0" d="m104.73606 603.979l105.41732 0l0 18.141724l-105.41732 0z" fill-rule="evenodd"/><path fill="#000000" d="m114.314186 617.84985l2.0 -9.546875l2.953125 0q0.8125 0 1.203125 0.078125q0.625 0.109375 1.0625 0.390625q0.453125 0.265625 0.6875 0.75q0.25 0.46875 0.25 1.046875q0 0.796875 -0.4375 1.390625q-0.4375 0.59375 -1.328125 0.90625q0.78125 0.265625 1.15625 0.78125q0.390625 0.5 0.390625 1.1875q0 0.78125 -0.453125 1.515625q-0.453125 0.71875 -1.203125 1.109375q-0.734375 0.390625 -1.65625 0.390625l-4.625 0zm2.421875 -5.46875l1.9375 0q1.375 0 1.984375 -0.4375q0.609375 -0.453125 0.609375 -1.296875q0 -0.390625 -0.1875 -0.6875q-0.1875 -0.296875 -0.5 -0.421875q-0.3125 -0.140625 -1.1875 -0.140625l-2.03125 0l-0.625 2.984375zm-0.921875 4.390625l2.171875 0q0.875 0 1.171875 -0.0625q0.609375 -0.109375 0.984375 -0.359375q0.375 -0.25 0.578125 -0.65625q0.21875 -0.40625 0.21875 -0.859375q0 -0.671875 -0.421875 -1.015625q-0.40625 -0.34375 -1.59375 -0.34375l-2.421875 0l-0.6875 3.296875zm8.921005 -7.125l0.28125 -1.34375l1.171875 0l-0.28125 1.34375l-1.171875 0zm-1.71875 8.203125l1.453125 -6.90625l1.171875 0l-1.4375 6.90625l-1.1875 0zm2.914215 0l2.0 -9.546875l1.1718826 0l-1.9843826 9.546875l-1.1875 0zm2.9610977 0l2.0 -9.546875l1.171875 0l-1.984375 9.546875l-1.1875 0zm4.726715 -8.203125l0.28125 -1.34375l1.171875 0l-0.28125 1.34375l-1.171875 0zm-1.71875 8.203125l1.453125 -6.90625l1.171875 0l-1.4375 6.90625l-1.1875 0zm3.007965 0l1.453125 -6.90625l1.0625 0l-0.25 1.203125q0.6875 -0.71875 1.296875 -1.03125q0.609375 -0.328125 1.234375 -0.328125q0.84375 0 1.3125 0.453125q0.484375 0.453125 0.484375 1.21875q0 0.375 -0.171875 1.203125l-0.875 4.1875l-1.171875 0l0.921875 -4.375q0.125 -0.640625 0.125 -0.953125q0 -0.34375 -0.234375 -0.546875q-0.234375 -0.21875 -0.6875 -0.21875q-0.90625 0 -1.609375 0.65625q-0.703125 0.640625 -1.03125 2.21875l-0.671875 3.21875l-1.1875 0zm7.3499756 0.625l1.1875 0.109375q0 0.40625 0.109375 0.609375q0.109375 0.203125 0.34375 0.3125q0.328125 0.140625 0.828125 0.140625q1.0625 0 1.53125 -0.546875q0.3125 -0.375 0.578125 -1.625l0.109375 -0.5625q-0.921875 0.9375 -1.953125 0.9375q-1.046875 0 -1.75 -0.765625q-0.703125 -0.78125 -0.703125 -2.1875q0 -1.171875 0.546875 -2.140625q0.5625 -0.984375 1.328125 -1.46875q0.765625 -0.5 1.578125 -0.5q1.359375 0 2.09375 1.28125l0.234375 -1.125l1.078125 0l-1.390625 6.671875q-0.21875 1.09375 -0.59375 1.703125q-0.375 0.625 -1.03125 0.953125q-0.65625 0.34375 -1.53125 0.34375q-0.828125 0 -1.4375 -0.21875q-0.59375 -0.203125 -0.890625 -0.625q-0.296875 -0.40625 -0.296875 -0.953125q0 -0.15625 0.03125 -0.34375zm1.46875 -3.6875q0 0.71875 0.140625 1.078125q0.203125 0.5 0.5625 0.765625q0.359375 0.25 0.796875 0.25q0.578125 0 1.140625 -0.40625q0.578125 -0.40625 0.9375 -1.25q0.359375 -0.859375 0.359375 -1.625q0 -0.859375 -0.484375 -1.359375q-0.46875 -0.515625 -1.15625 -0.515625q-0.4375 0 -0.84375 0.234375q-0.390625 0.234375 -0.75 0.703125q-0.34375 0.46875 -0.53125 1.140625q-0.171875 0.65625 -0.171875 0.984375z" fill-rule="nonzero"/><path fill="#000000" fill-opacity="0.0" d="m105.1824 622.7113l100.85039 0l0 18.141724l-100.85039 0z" fill-rule="evenodd"/><path fill="#000000" d="m114.83865 636.58215l2.0 -9.546875l1.234375 0l1.609375 3.578125q0.734375 1.640625 1.15625 2.765625q0.25 0.65625 0.578125 1.765625q0.171875 -1.21875 0.4375 -2.5l1.171875 -5.609375l1.25 0l-2.0 9.546875l-1.265625 0l-2.359375 -5.515625q-0.640625 -1.453125 -0.984375 -2.5625q-0.09375 0.921875 -0.375 2.28125l-1.21875 5.796875l-1.234375 0zm14.125153 -1.25q-1.234375 1.40625 -2.546875 1.40625q-0.796875 0 -1.296875 -0.453125q-0.484375 -0.46875 -0.484375 -1.125q0 -0.4375 0.21875 -1.5l0.84375 -3.984375l1.171875 0l-0.921875 4.40625q-0.109375 0.5625 -0.109375 0.859375q0 0.390625 0.234375 0.609375q0.234375 0.21875 0.703125 0.21875q0.484375 0 0.953125 -0.234375q0.484375 -0.234375 0.8125 -0.640625q0.34375 -0.421875 0.5625 -0.984375q0.140625 -0.359375 0.328125 -1.25l0.625 -2.984375l1.1875 0l-1.453125 6.90625l-1.078125 0l0.25 -1.25zm2.6937256 1.25l1.4375 -6.90625l1.1875 0l-0.25 1.140625q0.65625 -0.75 1.171875 -1.015625q0.53125 -0.28125 1.125 -0.28125q0.65625 0 1.078125 0.34375q0.4375 0.328125 0.578125 0.953125q0.515625 -0.65625 1.09375 -0.96875q0.59375 -0.328125 1.234375 -0.328125q0.875 0 1.296875 0.40625q0.4375 0.40625 0.4375 1.15625q0 0.3125 -0.15625 1.046875l-0.921875 4.453125l-1.171875 0l0.9375 -4.5625q0.125 -0.5625 0.125 -0.8125q0 -0.328125 -0.21875 -0.515625q-0.203125 -0.203125 -0.59375 -0.203125q-0.53125 0 -1.078125 0.328125q-0.546875 0.3125 -0.859375 0.828125q-0.296875 0.515625 -0.515625 1.59375l-0.703125 3.34375l-1.1875 0l0.984375 -4.671875q0.109375 -0.46875 0.109375 -0.671875q0 -0.34375 -0.21875 -0.546875q-0.21875 -0.203125 -0.546875 -0.203125q-0.5 0 -1.0625 0.328125q-0.546875 0.3125 -0.890625 0.875q-0.34375 0.5625 -0.5625 1.625l-0.6875 3.265625l-1.171875 0zm11.102432 0l2.0 -9.546875l1.171875 0l-0.703125 3.421875q0.5625 -0.515625 1.015625 -0.71875q0.453125 -0.21875 0.953125 -0.21875q0.96875 0 1.609375 0.71875q0.640625 0.71875 0.640625 2.09375q0 0.921875 -0.265625 1.6875q-0.25 0.765625 -0.640625 1.28125q-0.375 0.515625 -0.78125 0.828125q-0.40625 0.296875 -0.84375 0.453125q-0.421875 0.15625 -0.828125 0.15625q-0.6875 0 -1.203125 -0.359375q-0.515625 -0.359375 -0.8125 -1.109375l-0.265625 1.3125l-1.046875 0zm1.75 -2.84375l0 0.234375q0 0.875 0.421875 1.34375q0.421875 0.453125 1.046875 0.453125q0.625 0 1.140625 -0.421875q0.515625 -0.4375 0.84375 -1.34375q0.328125 -0.921875 0.328125 -1.703125q0 -0.875 -0.421875 -1.359375q-0.40625 -0.484375 -1.03125 -0.484375q-0.640625 0 -1.171875 0.5q-0.53125 0.484375 -0.890625 1.515625q-0.265625 0.765625 -0.265625 1.265625zm10.740601 0.5l1.15625 0.109375q-0.25 0.859375 -1.140625 1.625q-0.890625 0.765625 -2.125 0.765625q-0.765625 0 -1.40625 -0.34375q-0.640625 -0.359375 -0.984375 -1.03125q-0.328125 -0.6875 -0.328125 -1.546875q0 -1.140625 0.515625 -2.203125q0.53125 -1.0625 1.359375 -1.578125q0.84375 -0.515625 1.8125 -0.515625q1.234375 0 1.96875 0.765625q0.75 0.765625 0.75 2.09375q0 0.5 -0.09375 1.046875l-5.09375 0q-0.03125 0.1875 -0.03125 0.359375q0 0.96875 0.4375 1.484375q0.453125 0.5 1.109375 0.5q0.59375 0 1.171875 -0.390625q0.59375 -0.390625 0.921875 -1.140625zm-3.421875 -1.71875l3.875 0q0.015625 -0.1875 0.015625 -0.265625q0 -0.875 -0.453125 -1.34375q-0.4375 -0.484375 -1.125 -0.484375q-0.765625 0 -1.390625 0.53125q-0.609375 0.515625 -0.921875 1.5625zm5.7562256 4.0625l1.453125 -6.90625l1.03125 0l-0.28125 1.40625q0.53125 -0.796875 1.03125 -1.171875q0.515625 -0.390625 1.046875 -0.390625q0.359375 0 0.875 0.25l-0.484375 1.09375q-0.3125 -0.21875 -0.671875 -0.21875q-0.625 0 -1.28125 0.6875q-0.640625 0.6875 -1.015625 2.484375l-0.578125 2.765625l-1.125 0zm4.5477448 -2.359375l1.1875 -0.078125q0 0.515625 0.15625 0.875q0.15625 0.359375 0.578125 0.59375q0.421875 0.21875 0.96875 0.21875q0.78125 0 1.171875 -0.3125q0.390625 -0.3125 0.390625 -0.734375q0 -0.3125 -0.234375 -0.578125q-0.234375 -0.28125 -1.171875 -0.671875q-0.9375 -0.40625 -1.1875 -0.578125q-0.4375 -0.265625 -0.671875 -0.625q-0.21875 -0.359375 -0.21875 -0.828125q0 -0.8125 0.65625 -1.390625q0.65625 -0.59375 1.828125 -0.59375q1.296875 0 1.96875 0.609375q0.6875 0.59375 0.71875 1.578125l-1.15625 0.078125q-0.03125 -0.625 -0.453125 -0.984375q-0.40625 -0.375 -1.171875 -0.375q-0.609375 0 -0.953125 0.28125q-0.328125 0.28125 -0.328125 0.609375q0 0.3125 0.296875 0.5625q0.1875 0.171875 1.0 0.53125q1.359375 0.578125 1.703125 0.921875q0.5625 0.53125 0.5625 1.3125q0 0.515625 -0.3125 1.015625q-0.3125 0.484375 -0.96875 0.78125q-0.640625 0.296875 -1.515625 0.296875q-1.203125 0 -2.046875 -0.59375q-0.84375 -0.59375 -0.796875 -1.921875z" fill-rule="nonzero"/><path fill="#000000" fill-opacity="0.0" d="m89.57743 590.2809l0 0c0 -1.0321045 0.8366928 -1.8688354 1.8687973 -1.8688354l7.474991 0l0 0c0.49564362 0 0.9709778 0.19689941 1.3214493 0.5473633c0.35046387 0.35046387 0.54735565 0.82580566 0.54735565 1.3214722l0 8.073425c0 1.0321045 -0.8366928 1.8687744 -1.8688049 1.8687744l-7.474991 0c-1.0321045 0 -1.8687973 -0.8366699 -1.8687973 -1.8687744z" fill-rule="evenodd"/><path stroke="#666666" stroke-width="3.0" stroke-linejoin="round" stroke-linecap="butt" d="m89.57743 590.2809l0 0c0 -1.0321045 0.8366928 -1.8688354 1.8687973 -1.8688354l7.474991 0l0 0c0.49564362 0 0.9709778 0.19689941 1.3214493 0.5473633c0.35046387 0.35046387 0.54735565 0.82580566 0.54735565 1.3214722l0 8.073425c0 1.0321045 -0.8366928 1.8687744 -1.8688049 1.8687744l-7.474991 0c-1.0321045 0 -1.8687973 -0.8366699 -1.8687973 -1.8687744z" fill-rule="evenodd"/><path fill="#000000" fill-opacity="0.0" d="m89.57743 609.0132l0 0c0 -1.0321045 0.8366928 -1.8688354 1.8687973 -1.8688354l7.474991 0l0 0c0.49564362 0 0.9709778 0.19689941 1.3214493 0.5473633c0.35046387 0.35046387 0.54735565 0.82580566 0.54735565 1.3214722l0 8.073364c0 1.0321655 -0.8366928 1.8688354 -1.8688049 1.8688354l-7.474991 0c-1.0321045 0 -1.8687973 -0.8366699 -1.8687973 -1.8688354z" fill-rule="evenodd"/><path stroke="#666666" stroke-width="3.0" stroke-linejoin="round" stroke-linecap="butt" d="m89.57743 609.0132l0 0c0 -1.0321045 0.8366928 -1.8688354 1.8687973 -1.8688354l7.474991 0l0 0c0.49564362 0 0.9709778 0.19689941 1.3214493 0.5473633c0.35046387 0.35046387 0.54735565 0.82580566 0.54735565 1.3214722l0 8.073364c0 1.0321655 -0.8366928 1.8688354 -1.8688049 1.8688354l-7.474991 0c-1.0321045 0 -1.8687973 -0.8366699 -1.8687973 -1.8688354z" fill-rule="evenodd"/><path fill="#000000" fill-opacity="0.0" d="m89.57743 627.7454l0 0c0 -1.0321045 0.8366928 -1.8687744 1.8687973 -1.8687744l7.474991 0l0 0c0.49564362 0 0.9709778 0.19689941 1.3214493 0.5473633c0.35046387 0.35046387 0.54735565 0.82580566 0.54735565 1.3214111l0 8.073425c0 1.0321045 -0.8366928 1.8688354 -1.8688049 1.8688354l-7.474991 0c-1.0321045 0 -1.8687973 -0.83673096 -1.8687973 -1.8688354z" fill-rule="evenodd"/><path stroke="#666666" stroke-width="3.0" stroke-linejoin="round" stroke-linecap="butt" d="m89.57743 627.7454l0 0c0 -1.0321045 0.8366928 -1.8687744 1.8687973 -1.8687744l7.474991 0l0 0c0.49564362 0 0.9709778 0.19689941 1.3214493 0.5473633c0.35046387 0.35046387 0.54735565 0.82580566 0.54735565 1.3214111l0 8.073425c0 1.0321045 -0.8366928 1.8688354 -1.8688049 1.8688354l-7.474991 0c-1.0321045 0 -1.8687973 -0.83673096 -1.8687973 -1.8688354z" fill-rule="evenodd"/><path fill="#000000" fill-opacity="0.0" d="m75.979004 654.6693l139.74803 0l0 87.90552l-139.74803 0z" fill-rule="evenodd"/><path stroke="#595959" stroke-width="1.0" stroke-linejoin="round" stroke-linecap="butt" stroke-dasharray="4.0,3.0" d="m75.979004 654.6693l139.74803 0l0 87.90552l-139.74803 0z" fill-rule="evenodd"/><path fill="#f3f3f3" d="m78.83202 662.0145l0 0c0 -1.8845215 1.5276642 -3.4121704 3.41214 -3.4121704l125.17571 0c0.904953 0 1.7728577 0.35949707 2.4127502 0.99938965c0.63990784 0.6398926 0.99938965 1.5078125 0.99938965 2.4127808l0 13.648132c0 1.8844604 -1.5276642 3.4121704 -3.41214 3.4121704l-125.17571 0c-1.8844757 0 -3.41214 -1.52771 -3.41214 -3.4121704z" fill-rule="evenodd"/><path fill="#000000" d="m120.00186 665.6386l3.65625 -9.546875l1.359375 0l3.90625 9.546875l-1.4375 0l-1.109375 -2.890625l-3.984375 0l-1.046875 2.890625l-1.34375 0zm2.75 -3.921875l3.234375 0l-1.0 -2.640625q-0.453125 -1.203125 -0.671875 -1.96875q-0.1875 0.90625 -0.515625 1.8125l-1.046875 2.796875zm7.1866302 3.921875l0 -9.546875l3.59375 0q0.953125 0 1.453125 0.09375q0.703125 0.125 1.171875 0.453125q0.484375 0.328125 0.765625 0.921875q0.296875 0.59375 0.296875 1.296875q0 1.21875 -0.78125 2.0625q-0.765625 0.84375 -2.796875 0.84375l-2.4375 0l0 3.875l-1.265625 0zm1.265625 -5.0l2.453125 0q1.234375 0 1.75 -0.453125q0.515625 -0.46875 0.515625 -1.28125q0 -0.609375 -0.3125 -1.03125q-0.296875 -0.421875 -0.796875 -0.5625q-0.3125 -0.09375 -1.171875 -0.09375l-2.4375 0l0 3.421875zm7.8428802 5.0l0 -9.546875l1.25 0l0 9.546875l-1.25 0zm7.0466003 0l0 -9.546875l1.171875 0l0 5.453125l2.765625 -2.8125l1.515625 0l-2.640625 2.5625l2.90625 4.34375l-1.4375 0l-2.28125 -3.53125l-0.828125 0.796875l0 2.734375l-1.171875 0zm11.3828125 -2.21875l1.203125 0.140625q-0.28125 1.0625 -1.0625 1.65625q-0.765625 0.578125 -1.96875 0.578125q-1.515625 0 -2.40625 -0.9375q-0.890625 -0.9375 -0.890625 -2.609375q0 -1.75 0.890625 -2.703125q0.90625 -0.96875 2.34375 -0.96875q1.390625 0 2.265625 0.9375q0.875 0.9375 0.875 2.65625q0 0.109375 0 0.3125l-5.15625 0q0.0625 1.140625 0.640625 1.75q0.578125 0.59375 1.4375 0.59375q0.65625 0 1.109375 -0.328125q0.453125 -0.34375 0.71875 -1.078125zm-3.84375 -1.90625l3.859375 0q-0.078125 -0.859375 -0.4375 -1.296875q-0.5625 -0.6875 -1.453125 -0.6875q-0.8125 0 -1.359375 0.546875q-0.546875 0.53125 -0.609375 1.4375zm6.4749756 6.78125l-0.125 -1.09375q0.375 0.109375 0.65625 0.109375q0.390625 0 0.625 -0.140625q0.234375 -0.125 0.390625 -0.359375q0.109375 -0.171875 0.359375 -0.875q0.03125 -0.09375 0.109375 -0.28125l-2.625 -6.921875l1.265625 0l1.4375 4.0q0.28125 0.765625 0.5 1.59375q0.203125 -0.796875 0.46875 -1.578125l1.484375 -4.015625l1.171875 0l-2.625 7.015625q-0.421875 1.140625 -0.65625 1.578125q-0.3125 0.578125 -0.71875 0.84375q-0.40625 0.28125 -0.96875 0.28125q-0.328125 0 -0.75 -0.15625zm7.0390625 -8.234375l0 -1.328125l1.328125 0l0 1.328125l-1.328125 0zm0 5.578125l0 -1.328125l1.328125 0l0 1.328125l-1.328125 0z" fill-rule="nonzero"/><path fill="#000000" d="m121.286285 679.41986l1.203125 0.140625q-0.28125 1.0625 -1.0625 1.65625q-0.765625 0.578125 -1.96875 0.578125q-1.515625 0 -2.40625 -0.9375q-0.890625 -0.9375 -0.890625 -2.609375q0 -1.75 0.890625 -2.703125q0.90625 -0.96875 2.34375 -0.96875q1.390625 0 2.265625 0.9375q0.875 0.9375 0.875 2.65625q0 0.109375 0 0.3125l-5.15625 0q0.0625 1.140625 0.640625 1.75q0.578125 0.59375 1.4375 0.59375q0.65625 0 1.109375 -0.328125q0.453125 -0.34375 0.71875 -1.078125zm-3.84375 -1.90625l3.859375 0q-0.078125 -0.859375 -0.4375 -1.296875q-0.5625 -0.6875 -1.453125 -0.6875q-0.8125 0 -1.359375 0.546875q-0.546875 0.53125 -0.609375 1.4375zm10.615601 4.125l-1.171875 0l0 -7.46875q-0.421875 0.40625 -1.109375 0.8125q-0.6875 0.40625 -1.234375 0.609375l0 -1.140625q0.984375 -0.453125 1.71875 -1.109375q0.734375 -0.671875 1.03125 -1.28125l0.765625 0l0 9.578125zm6.4228973 0l-1.171875 0l0 -7.46875q-0.421875 0.40625 -1.109375 0.8125q-0.6875 0.40625 -1.234375 0.609375l0 -1.140625q0.984375 -0.453125 1.71875 -1.109375q0.734375 -0.671875 1.03125 -1.28125l0.765625 0l0 9.578125zm4.8031006 -5.171875q-0.734375 -0.265625 -1.09375 -0.765625q-0.34375 -0.5 -0.34375 -1.1875q0 -1.03125 0.75 -1.734375q0.75 -0.71875 1.984375 -0.71875q1.25 0 2.015625 0.734375q0.765625 0.71875 0.765625 1.75q0 0.671875 -0.359375 1.171875q-0.34375 0.484375 -1.046875 0.75q0.875 0.28125 1.328125 0.921875q0.46875 0.640625 0.46875 1.515625q0 1.234375 -0.875 2.0625q-0.859375 0.828125 -2.265625 0.828125q-1.421875 0 -2.28125 -0.828125q-0.859375 -0.84375 -0.859375 -2.09375q0 -0.921875 0.46875 -1.546875q0.46875 -0.640625 1.34375 -0.859375zm-0.234375 -1.984375q0 0.671875 0.4375 1.109375q0.4375 0.421875 1.125 0.421875q0.671875 0 1.109375 -0.421875q0.4375 -0.421875 0.4375 -1.046875q0 -0.640625 -0.453125 -1.078125q-0.4375 -0.4375 -1.109375 -0.4375q-0.671875 0 -1.109375 0.4375q-0.4375 0.421875 -0.4375 1.015625zm-0.375 4.40625q0 0.5 0.234375 0.96875q0.234375 0.46875 0.703125 0.734375q0.46875 0.25 1.015625 0.25q0.828125 0 1.375 -0.53125q0.546875 -0.546875 0.546875 -1.390625q0 -0.84375 -0.5625 -1.390625q-0.5625 -0.5625 -1.40625 -0.5625q-0.828125 0 -1.375 0.546875q-0.53125 0.546875 -0.53125 1.375zm6.2093506 -1.953125q0 -1.6875 0.34375 -2.71875q0.359375 -1.03125 1.046875 -1.59375q0.6875 -0.5625 1.71875 -0.5625q0.78125 0 1.359375 0.3125q0.578125 0.296875 0.953125 0.890625q0.375 0.578125 0.59375 1.421875q0.21875 0.828125 0.21875 2.25q0 1.671875 -0.359375 2.703125q-0.34375 1.03125 -1.03125 1.59375q-0.671875 0.5625 -1.734375 0.5625q-1.375 0 -2.15625 -0.984375q-0.953125 -1.1875 -0.953125 -3.875zm1.203125 0q0 2.34375 0.546875 3.125q0.5625 0.78125 1.359375 0.78125q0.8125 0 1.359375 -0.78125q0.5625 -0.78125 0.5625 -3.125q0 -2.359375 -0.5625 -3.125q-0.546875 -0.78125 -1.359375 -0.78125q-0.8125 0 -1.296875 0.6875q-0.609375 0.875 -0.609375 3.21875zm6.2249756 2.1875l1.171875 -0.15625q0.203125 1.0 0.6875 1.4375q0.484375 0.4375 1.171875 0.4375q0.828125 0 1.390625 -0.578125q0.578125 -0.578125 0.578125 -1.421875q0 -0.796875 -0.53125 -1.3125q-0.515625 -0.53125 -1.328125 -0.53125q-0.34375 0 -0.828125 0.125l0.125 -1.03125q0.125 0.015625 0.1875 0.015625q0.75 0 1.34375 -0.390625q0.609375 -0.390625 0.609375 -1.203125q0 -0.640625 -0.4375 -1.0625q-0.4375 -0.421875 -1.125 -0.421875q-0.6875 0 -1.140625 0.4375q-0.453125 0.421875 -0.59375 1.28125l-1.171875 -0.21875q0.21875 -1.171875 0.984375 -1.8125q0.765625 -0.65625 1.890625 -0.65625q0.78125 0 1.4375 0.34375q0.65625 0.328125 1.0 0.90625q0.359375 0.578125 0.359375 1.234375q0 0.609375 -0.34375 1.125q-0.328125 0.5 -0.96875 0.796875q0.84375 0.203125 1.3125 0.828125q0.46875 0.609375 0.46875 1.53125q0 1.25 -0.921875 2.125q-0.90625 0.859375 -2.296875 0.859375q-1.25 0 -2.09375 -0.75q-0.828125 -0.75 -0.9375 -1.9375zm12.459351 0.296875l1.203125 0.140625q-0.28125 1.0625 -1.0625 1.65625q-0.765625 0.578125 -1.96875 0.578125q-1.515625 0 -2.40625 -0.9375q-0.890625 -0.9375 -0.890625 -2.609375q0 -1.75 0.890625 -2.703125q0.90625 -0.96875 2.34375 -0.96875q1.390625 0 2.265625 0.9375q0.875 0.9375 0.875 2.65625q0 0.109375 0 0.3125l-5.15625 0q0.0625 1.140625 0.640625 1.75q0.578125 0.59375 1.4375 0.59375q0.65625 0 1.109375 -0.328125q0.453125 -0.34375 0.71875 -1.078125zm-3.84375 -1.90625l3.859375 0q-0.078125 -0.859375 -0.4375 -1.296875q-0.5625 -0.6875 -1.453125 -0.6875q-0.8125 0 -1.359375 0.546875q-0.546875 0.53125 -0.609375 1.4375zm11.006226 4.125l0 -0.875q-0.65625 1.03125 -1.9375 1.03125q-0.8125 0 -1.515625 -0.453125q-0.6875 -0.453125 -1.078125 -1.265625q-0.375 -0.828125 -0.375 -1.890625q0 -1.03125 0.34375 -1.875q0.34375 -0.84375 1.03125 -1.28125q0.703125 -0.453125 1.546875 -0.453125q0.625 0 1.109375 0.265625q0.5 0.25 0.796875 0.671875l0 -3.421875l1.171875 0l0 9.546875l-1.09375 0zm-3.703125 -3.453125q0 1.328125 0.5625 1.984375q0.5625 0.65625 1.328125 0.65625q0.765625 0 1.296875 -0.625q0.53125 -0.625 0.53125 -1.90625q0 -1.421875 -0.546875 -2.078125q-0.546875 -0.671875 -1.34375 -0.671875q-0.78125 0 -1.3125 0.640625q-0.515625 0.625 -0.515625 2.0z" fill-rule="nonzero"/><path fill="#000000" fill-opacity="0.0" d="m105.42768 683.7244l105.41732 0l0 18.141724l-105.41732 0z" fill-rule="evenodd"/><path fill="#000000" d="m122.45893 694.2359l1.265625 0.171875q-0.59375 1.65625 -1.75 2.5q-1.140625 0.84375 -2.5625 0.84375q-1.734375 0 -2.765625 -1.046875q-1.015625 -1.0625 -1.015625 -3.046875q0 -2.578125 1.5625 -4.265625q1.375 -1.5 3.421875 -1.5q1.515625 0 2.453125 0.8125q0.953125 0.8125 1.09375 2.1875l-1.1875 0.109375q-0.1875 -1.03125 -0.78125 -1.546875q-0.59375 -0.515625 -1.515625 -0.515625q-1.75 0 -2.828125 1.5625q-0.9375 1.34375 -0.9375 3.1875q0 1.46875 0.71875 2.25q0.71875 0.765625 1.875 0.765625q1.0 0 1.796875 -0.640625q0.796875 -0.65625 1.15625 -1.828125zm2.2501526 0.734375q0 -2.015625 1.1875 -3.34375q0.984375 -1.09375 2.5781174 -1.09375q1.25 0 2.015625 0.78125q0.765625 0.78125 0.765625 2.109375q0 1.1875 -0.484375 2.21875q-0.484375 1.015625 -1.375 1.5625q-0.890625 0.546875 -1.8749924 0.546875q-0.796875 0 -1.46875 -0.34375q-0.65625 -0.34375 -1.0 -0.96875q-0.34375 -0.640625 -0.34375 -1.46875zm1.171875 -0.109375q0 0.96875 0.46875 1.484375q0.46875 0.5 1.1875 0.5q0.375 0 0.7499924 -0.15625q0.375 -0.15625 0.6875 -0.46875q0.328125 -0.3125 0.546875 -0.703125q0.21875 -0.40625 0.359375 -0.875q0.203125 -0.640625 0.203125 -1.234375q0 -0.9375 -0.46875 -1.453125q-0.46875 -0.515625 -1.1875 -0.515625q-0.5624924 0 -1.0156174 0.265625q-0.453125 0.265625 -0.828125 0.78125q-0.359375 0.5 -0.53125 1.171875q-0.171875 0.671875 -0.171875 1.203125zm6.021843 2.734375l1.453125 -6.90625l1.0625 0l-0.25 1.203125q0.6875 -0.71875 1.296875 -1.03125q0.609375 -0.328125 1.234375 -0.328125q0.84375 0 1.3125 0.453125q0.484375 0.453125 0.484375 1.21875q0 0.375 -0.171875 1.203125l-0.875 4.1875l-1.171875 0l0.921875 -4.375q0.125 -0.640625 0.125 -0.953125q0 -0.34375 -0.234375 -0.546875q-0.234375 -0.21875 -0.6875 -0.21875q-0.90625 0 -1.609375 0.65625q-0.703125 0.640625 -1.03125 2.21875l-0.671875 3.21875l-1.1875 0zm7.5843506 0l1.25 -6.0l-1.046875 0l0.1875 -0.90625l1.046875 0l0.203125 -0.984375q0.15625 -0.734375 0.3125 -1.0625q0.171875 -0.328125 0.546875 -0.53125q0.375 -0.21875 1.015625 -0.21875q0.453125 0 1.3125 0.1875l-0.21875 1.03125q-0.59375 -0.15625 -1.0 -0.15625q-0.34375 0 -0.53125 0.171875q-0.171875 0.171875 -0.296875 0.8125l-0.15625 0.75l1.3125 0l-0.1875 0.90625l-1.3125 0l-1.265625 6.0l-1.171875 0zm5.2029877 -8.203125l0.28125 -1.34375l1.171875 0l-0.28125 1.34375l-1.171875 0zm-1.71875 8.203125l1.453125 -6.90625l1.171875 0l-1.4375 6.90625l-1.1875 0zm2.945465 0.625l1.1875 0.109375q0 0.40625 0.109375 0.609375q0.109375 0.203125 0.34375 0.3125q0.328125 0.140625 0.828125 0.140625q1.0625 0 1.53125 -0.546875q0.3125 -0.375 0.578125 -1.625l0.109375 -0.5625q-0.921875 0.9375 -1.953125 0.9375q-1.046875 0 -1.75 -0.765625q-0.703125 -0.78125 -0.703125 -2.1875q0 -1.171875 0.546875 -2.140625q0.5625 -0.984375 1.328125 -1.46875q0.765625 -0.5 1.578125 -0.5q1.359375 0 2.09375 1.28125l0.234375 -1.125l1.078125 0l-1.390625 6.671875q-0.21875 1.09375 -0.59375 1.703125q-0.375 0.625 -1.03125 0.953125q-0.65625 0.34375 -1.53125 0.34375q-0.828125 0 -1.4375 -0.21875q-0.59375 -0.203125 -0.890625 -0.625q-0.296875 -0.40625 -0.296875 -0.953125q0 -0.15625 0.03125 -0.34375zm1.46875 -3.6875q0 0.71875 0.140625 1.078125q0.203125 0.5 0.5625 0.765625q0.359375 0.25 0.796875 0.25q0.578125 0 1.140625 -0.40625q0.578125 -0.40625 0.9375 -1.25q0.359375 -0.859375 0.359375 -1.625q0 -0.859375 -0.484375 -1.359375q-0.46875 -0.515625 -1.15625 -0.515625q-0.4375 0 -0.84375 0.234375q-0.390625 0.234375 -0.75 0.703125q-0.34375 0.46875 -0.53125 1.140625q-0.171875 0.65625 -0.171875 0.984375zm10.724976 1.8125q-1.234375 1.40625 -2.546875 1.40625q-0.796875 0 -1.296875 -0.453125q-0.484375 -0.46875 -0.484375 -1.125q0 -0.4375 0.21875 -1.5l0.84375 -3.984375l1.171875 0l-0.921875 4.40625q-0.109375 0.5625 -0.109375 0.859375q0 0.390625 0.234375 0.609375q0.234375 0.21875 0.703125 0.21875q0.484375 0 0.953125 -0.234375q0.484375 -0.234375 0.8125 -0.640625q0.34375 -0.421875 0.5625 -0.984375q0.140625 -0.359375 0.328125 -1.25l0.625 -2.984375l1.1875 0l-1.453125 6.90625l-1.078125 0l0.25 -1.25zm2.6937256 1.25l1.453125 -6.90625l1.03125 0l-0.28125 1.40625q0.53125 -0.796875 1.03125 -1.171875q0.515625 -0.390625 1.046875 -0.390625q0.359375 0 0.875 0.25l-0.484375 1.09375q-0.3125 -0.21875 -0.671875 -0.21875q-0.625 0 -1.28125 0.6875q-0.640625 0.6875 -1.015625 2.484375l-0.578125 2.765625l-1.125 0zm9.110245 -0.859375q-0.625 0.53125 -1.1875 0.78125q-0.5625 0.234375 -1.203125 0.234375q-0.96875 0 -1.5625 -0.5625q-0.578125 -0.5625 -0.578125 -1.4375q0 -0.578125 0.265625 -1.015625q0.265625 -0.453125 0.703125 -0.71875q0.4375 -0.28125 1.0625 -0.390625q0.40625 -0.078125 1.515625 -0.125q1.109375 -0.046875 1.59375 -0.234375q0.125 -0.484375 0.125 -0.8125q0 -0.40625 -0.296875 -0.640625q-0.40625 -0.328125 -1.1875 -0.328125q-0.75 0 -1.21875 0.328125q-0.46875 0.328125 -0.6875 0.9375l-1.1875 -0.109375q0.359375 -1.015625 1.140625 -1.5625q0.796875 -0.546875 2.0 -0.546875q1.28125 0 2.03125 0.609375q0.578125 0.453125 0.578125 1.1875q0 0.546875 -0.15625 1.28125l-0.390625 1.71875q-0.1875 0.8125 -0.1875 1.328125q0 0.328125 0.15625 0.9375l-1.203125 0q-0.09375 -0.34375 -0.125 -0.859375zm0.421875 -2.640625q-0.234375 0.09375 -0.53125 0.15625q-0.28125 0.046875 -0.9375 0.109375q-1.03125 0.078125 -1.453125 0.21875q-0.421875 0.140625 -0.640625 0.453125q-0.21875 0.296875 -0.21875 0.671875q0 0.5 0.34375 0.828125q0.34375 0.3125 0.984375 0.3125q0.578125 0 1.109375 -0.3125q0.546875 -0.3125 0.859375 -0.859375q0.3125 -0.5625 0.484375 -1.578125zm5.0843506 2.546875l-0.203125 0.953125q-0.421875 0.109375 -0.8125 0.109375q-0.703125 0 -1.125 -0.34375q-0.3125 -0.25 -0.3125 -0.703125q0 -0.234375 0.171875 -1.046875l0.828125 -4.015625l-0.921875 0l0.1875 -0.90625l0.9375 0l0.34375 -1.703125l1.359375 -0.8125l-0.53125 2.515625l1.15625 0l-0.1875 0.90625l-1.15625 0l-0.796875 3.8125q-0.15625 0.734375 -0.15625 0.875q0 0.21875 0.109375 0.328125q0.125 0.109375 0.40625 0.109375q0.390625 0 0.703125 -0.078125zm2.6092377 -7.25l0.28125 -1.34375l1.171875 0l-0.28125 1.34375l-1.171875 0zm-1.71875 8.203125l1.453125 -6.90625l1.171875 0l-1.4375 6.90625l-1.1875 0zm3.226715 -2.625q0 -2.015625 1.1875 -3.34375q0.984375 -1.09375 2.578125 -1.09375q1.25 0 2.015625 0.78125q0.765625 0.78125 0.765625 2.109375q0 1.1875 -0.484375 2.21875q-0.484375 1.015625 -1.375 1.5625q-0.890625 0.546875 -1.875 0.546875q-0.796875 0 -1.46875 -0.34375q-0.65625 -0.34375 -1.0 -0.96875q-0.34375 -0.640625 -0.34375 -1.46875zm1.171875 -0.109375q0 0.96875 0.46875 1.484375q0.46875 0.5 1.1875 0.5q0.375 0 0.75 -0.15625q0.375 -0.15625 0.6875 -0.46875q0.328125 -0.3125 0.546875 -0.703125q0.21875 -0.40625 0.359375 -0.875q0.203125 -0.640625 0.203125 -1.234375q0 -0.9375 -0.46875 -1.453125q-0.46875 -0.515625 -1.1875 -0.515625q-0.5625 0 -1.015625 0.265625q-0.453125 0.265625 -0.828125 0.78125q-0.359375 0.5 -0.53125 1.171875q-0.171875 0.671875 -0.171875 1.203125zm6.0218506 2.734375l1.453125 -6.90625l1.0625 0l-0.25 1.203125q0.6875 -0.71875 1.296875 -1.03125q0.609375 -0.328125 1.234375 -0.328125q0.84375 0 1.3125 0.453125q0.484375 0.453125 0.484375 1.21875q0 0.375 -0.171875 1.203125l-0.875 4.1875l-1.171875 0l0.921875 -4.375q0.125 -0.640625 0.125 -0.953125q0 -0.34375 -0.234375 -0.546875q-0.234375 -0.21875 -0.6875 -0.21875q-0.90625 0 -1.609375 0.65625q-0.703125 0.640625 -1.03125 2.21875l-0.671875 3.21875l-1.1875 0z" fill-rule="nonzero"/><path fill="#000000" fill-opacity="0.0" d="m105.42898 702.45667l105.41732 0l0 18.141785l-105.41732 0z" fill-rule="evenodd"/><path fill="#000000" d="m115.0071 716.3276l2.0 -9.546875l2.953125 0q0.8125 0 1.203125 0.078125q0.625 0.109375 1.0625 0.390625q0.453125 0.265625 0.6875 0.75q0.25 0.46875 0.25 1.046875q0 0.796875 -0.4375 1.390625q-0.4375 0.59375 -1.328125 0.90625q0.78125 0.265625 1.15625 0.78125q0.390625 0.5 0.390625 1.1875q0 0.78125 -0.453125 1.515625q-0.453125 0.71875 -1.203125 1.109375q-0.734375 0.390625 -1.65625 0.390625l-4.625 0zm2.421875 -5.46875l1.9375 0q1.375 0 1.984375 -0.4375q0.609375 -0.453125 0.609375 -1.296875q0 -0.390625 -0.1875 -0.6875q-0.1875 -0.296875 -0.5 -0.421875q-0.3125 -0.140625 -1.1875 -0.140625l-2.03125 0l-0.625 2.984375zm-0.921875 4.390625l2.171875 0q0.875 0 1.171875 -0.0625q0.609375 -0.109375 0.984375 -0.359375q0.375 -0.25 0.578125 -0.65625q0.21875 -0.40625 0.21875 -0.859375q0 -0.671875 -0.421875 -1.015625q-0.40625 -0.34375 -1.59375 -0.34375l-2.421875 0l-0.6875 3.296875zm8.921005 -7.125l0.28125 -1.34375l1.171875 0l-0.28125 1.34375l-1.171875 0zm-1.71875 8.203125l1.453125 -6.90625l1.171875 0l-1.4375 6.90625l-1.1875 0zm2.914215 0l1.9999924 -9.546875l1.171875 0l-1.9843674 9.546875l-1.1875 0zm2.9610825 0l2.0 -9.546875l1.171875 0l-1.984375 9.546875l-1.1875 0zm4.726715 -8.203125l0.28125 -1.34375l1.171875 0l-0.28125 1.34375l-1.171875 0zm-1.71875 8.203125l1.453125 -6.90625l1.171875 0l-1.4375 6.90625l-1.1875 0zm3.007965 0l1.453125 -6.90625l1.0625 0l-0.25 1.203125q0.6875 -0.71875 1.296875 -1.03125q0.609375 -0.328125 1.234375 -0.328125q0.84375 0 1.3125 0.453125q0.484375 0.453125 0.484375 1.21875q0 0.375 -0.171875 1.203125l-0.875 4.1875l-1.171875 0l0.921875 -4.375q0.125 -0.640625 0.125 -0.953125q0 -0.34375 -0.234375 -0.546875q-0.234375 -0.21875 -0.6875 -0.21875q-0.90625 0 -1.609375 0.65625q-0.703125 0.640625 -1.03125 2.21875l-0.671875 3.21875l-1.1875 0zm7.3499756 0.625l1.1875 0.109375q0 0.40625 0.109375 0.609375q0.109375 0.203125 0.34375 0.3125q0.328125 0.140625 0.828125 0.140625q1.0625 0 1.53125 -0.546875q0.3125 -0.375 0.578125 -1.625l0.109375 -0.5625q-0.921875 0.9375 -1.953125 0.9375q-1.046875 0 -1.75 -0.765625q-0.703125 -0.78125 -0.703125 -2.1875q0 -1.171875 0.546875 -2.140625q0.5625 -0.984375 1.328125 -1.46875q0.765625 -0.5 1.578125 -0.5q1.359375 0 2.09375 1.28125l0.234375 -1.125l1.078125 0l-1.390625 6.671875q-0.21875 1.09375 -0.59375 1.703125q-0.375 0.625 -1.03125 0.953125q-0.65625 0.34375 -1.53125 0.34375q-0.828125 0 -1.4375 -0.21875q-0.59375 -0.203125 -0.890625 -0.625q-0.296875 -0.40625 -0.296875 -0.953125q0 -0.15625 0.03125 -0.34375zm1.46875 -3.6875q0 0.71875 0.140625 1.078125q0.203125 0.5 0.5625 0.765625q0.359375 0.25 0.796875 0.25q0.578125 0 1.140625 -0.40625q0.578125 -0.40625 0.9375 -1.25q0.359375 -0.859375 0.359375 -1.625q0 -0.859375 -0.484375 -1.359375q-0.46875 -0.515625 -1.15625 -0.515625q-0.4375 0 -0.84375 0.234375q-0.390625 0.234375 -0.75 0.703125q-0.34375 0.46875 -0.53125 1.140625q-0.171875 0.65625 -0.171875 0.984375z" fill-rule="nonzero"/><path fill="#000000" fill-opacity="0.0" d="m105.87531 721.18896l100.850395 0l0 18.141724l-100.850395 0z" fill-rule="evenodd"/><path fill="#000000" d="m115.53156 735.0598l2.0 -9.546875l1.234375 0l1.609375 3.578125q0.734375 1.640625 1.15625 2.765625q0.25 0.65625 0.578125 1.765625q0.171875 -1.21875 0.4375 -2.5l1.171875 -5.609375l1.25 0l-2.0 9.546875l-1.265625 0l-2.359375 -5.515625q-0.640625 -1.453125 -0.984375 -2.5625q-0.09375 0.921875 -0.375 2.28125l-1.21875 5.796875l-1.234375 0zm14.12516 -1.25q-1.234375 1.40625 -2.5468826 1.40625q-0.796875 0 -1.296875 -0.453125q-0.484375 -0.46875 -0.484375 -1.125q0 -0.4375 0.21875 -1.5l0.84375 -3.984375l1.171875 0l-0.921875 4.40625q-0.109375 0.5625 -0.109375 0.859375q0 0.390625 0.234375 0.609375q0.234375 0.21875 0.703125 0.21875q0.484375 0 0.9531326 -0.234375q0.484375 -0.234375 0.8125 -0.640625q0.34375 -0.421875 0.5625 -0.984375q0.140625 -0.359375 0.328125 -1.25l0.625 -2.984375l1.1875 0l-1.453125 6.90625l-1.078125 0l0.25 -1.25zm2.6937256 1.25l1.4375 -6.90625l1.1875 0l-0.25 1.140625q0.65625 -0.75 1.171875 -1.015625q0.53125 -0.28125 1.125 -0.28125q0.65625 0 1.078125 0.34375q0.4375 0.328125 0.578125 0.953125q0.515625 -0.65625 1.09375 -0.96875q0.59375 -0.328125 1.234375 -0.328125q0.875 0 1.296875 0.40625q0.4375 0.40625 0.4375 1.15625q0 0.3125 -0.15625 1.046875l-0.921875 4.453125l-1.171875 0l0.9375 -4.5625q0.125 -0.5625 0.125 -0.8125q0 -0.328125 -0.21875 -0.515625q-0.203125 -0.203125 -0.59375 -0.203125q-0.53125 0 -1.078125 0.328125q-0.546875 0.3125 -0.859375 0.828125q-0.296875 0.515625 -0.515625 1.59375l-0.703125 3.34375l-1.1875 0l0.984375 -4.671875q0.109375 -0.46875 0.109375 -0.671875q0 -0.34375 -0.21875 -0.546875q-0.21875 -0.203125 -0.546875 -0.203125q-0.5 0 -1.0625 0.328125q-0.546875 0.3125 -0.890625 0.875q-0.34375 0.5625 -0.5625 1.625l-0.6875 3.265625l-1.171875 0zm11.102432 0l2.0 -9.546875l1.171875 0l-0.703125 3.421875q0.5625 -0.515625 1.015625 -0.71875q0.453125 -0.21875 0.953125 -0.21875q0.96875 0 1.609375 0.71875q0.640625 0.71875 0.640625 2.09375q0 0.921875 -0.265625 1.6875q-0.25 0.765625 -0.640625 1.28125q-0.375 0.515625 -0.78125 0.828125q-0.40625 0.296875 -0.84375 0.453125q-0.421875 0.15625 -0.828125 0.15625q-0.6875 0 -1.203125 -0.359375q-0.515625 -0.359375 -0.8125 -1.109375l-0.265625 1.3125l-1.046875 0zm1.75 -2.84375l0 0.234375q0 0.875 0.421875 1.34375q0.421875 0.453125 1.046875 0.453125q0.625 0 1.140625 -0.421875q0.515625 -0.4375 0.84375 -1.34375q0.328125 -0.921875 0.328125 -1.703125q0 -0.875 -0.421875 -1.359375q-0.40625 -0.484375 -1.03125 -0.484375q-0.640625 0 -1.171875 0.5q-0.53125 0.484375 -0.890625 1.515625q-0.265625 0.765625 -0.265625 1.265625zm10.740601 0.5l1.15625 0.109375q-0.25 0.859375 -1.140625 1.625q-0.890625 0.765625 -2.125 0.765625q-0.765625 0 -1.40625 -0.34375q-0.640625 -0.359375 -0.984375 -1.03125q-0.328125 -0.6875 -0.328125 -1.546875q0 -1.140625 0.515625 -2.203125q0.53125 -1.0625 1.359375 -1.578125q0.84375 -0.515625 1.8125 -0.515625q1.234375 0 1.96875 0.765625q0.75 0.765625 0.75 2.09375q0 0.5 -0.09375 1.046875l-5.09375 0q-0.03125 0.1875 -0.03125 0.359375q0 0.96875 0.4375 1.484375q0.453125 0.5 1.109375 0.5q0.59375 0 1.171875 -0.390625q0.59375 -0.390625 0.921875 -1.140625zm-3.421875 -1.71875l3.875 0q0.015625 -0.1875 0.015625 -0.265625q0 -0.875 -0.453125 -1.34375q-0.4375 -0.484375 -1.125 -0.484375q-0.765625 0 -1.390625 0.53125q-0.609375 0.515625 -0.921875 1.5625zm5.7562256 4.0625l1.453125 -6.90625l1.03125 0l-0.28125 1.40625q0.53125 -0.796875 1.03125 -1.171875q0.515625 -0.390625 1.046875 -0.390625q0.359375 0 0.875 0.25l-0.484375 1.09375q-0.3125 -0.21875 -0.671875 -0.21875q-0.625 0 -1.28125 0.6875q-0.640625 0.6875 -1.015625 2.484375l-0.578125 2.765625l-1.125 0zm4.5477448 -2.359375l1.1875 -0.078125q0 0.515625 0.15625 0.875q0.15625 0.359375 0.578125 0.59375q0.421875 0.21875 0.96875 0.21875q0.78125 0 1.171875 -0.3125q0.390625 -0.3125 0.390625 -0.734375q0 -0.3125 -0.234375 -0.578125q-0.234375 -0.28125 -1.171875 -0.671875q-0.9375 -0.40625 -1.1875 -0.578125q-0.4375 -0.265625 -0.671875 -0.625q-0.21875 -0.359375 -0.21875 -0.828125q0 -0.8125 0.65625 -1.390625q0.65625 -0.59375 1.828125 -0.59375q1.296875 0 1.96875 0.609375q0.6875 0.59375 0.71875 1.578125l-1.15625 0.078125q-0.03125 -0.625 -0.453125 -0.984375q-0.40625 -0.375 -1.171875 -0.375q-0.609375 0 -0.953125 0.28125q-0.328125 0.28125 -0.328125 0.609375q0 0.3125 0.296875 0.5625q0.1875 0.171875 1.0 0.53125q1.359375 0.578125 1.703125 0.921875q0.5625 0.53125 0.5625 1.3125q0 0.515625 -0.3125 1.015625q-0.3125 0.484375 -0.96875 0.78125q-0.640625 0.296875 -1.515625 0.296875q-1.203125 0 -2.046875 -0.59375q-0.84375 -0.59375 -0.796875 -1.921875z" fill-rule="nonzero"/><path fill="#000000" fill-opacity="0.0" d="m90.27034 688.75854l0 0c0 -1.0321045 0.8366928 -1.8687744 1.8688049 -1.8687744l7.474991 0l0 0c0.495636 0 0.9709778 0.19689941 1.3214417 0.5473633c0.3504715 0.35046387 0.5473633 0.82580566 0.5473633 1.3214111l0 8.073425c0 1.0321045 -0.8366928 1.8688354 -1.8688049 1.8688354l-7.474991 0c-1.0321121 0 -1.8688049 -0.83673096 -1.8688049 -1.8688354z" fill-rule="evenodd"/><path stroke="#666666" stroke-width="3.0" stroke-linejoin="round" stroke-linecap="butt" d="m90.27034 688.75854l0 0c0 -1.0321045 0.8366928 -1.8687744 1.8688049 -1.8687744l7.474991 0l0 0c0.495636 0 0.9709778 0.19689941 1.3214417 0.5473633c0.3504715 0.35046387 0.5473633 0.82580566 0.5473633 1.3214111l0 8.073425c0 1.0321045 -0.8366928 1.8688354 -1.8688049 1.8688354l-7.474991 0c-1.0321121 0 -1.8688049 -0.83673096 -1.8688049 -1.8688354z" fill-rule="evenodd"/><path fill="#999999" d="m90.27034 707.49084l0 0c0 -1.0321045 0.8366928 -1.8687744 1.8688049 -1.8687744l7.474991 0l0 0c0.495636 0 0.9709778 0.19683838 1.3214417 0.5473633c0.3504715 0.35046387 0.5473633 0.82580566 0.5473633 1.3214111l0 8.073425c0 1.0321045 -0.8366928 1.8687744 -1.8688049 1.8687744l-7.474991 0c-1.0321121 0 -1.8688049 -0.8366699 -1.8688049 -1.8687744z" fill-rule="evenodd"/><path stroke="#666666" stroke-width="3.0" stroke-linejoin="round" stroke-linecap="butt" d="m90.27034 707.49084l0 0c0 -1.0321045 0.8366928 -1.8687744 1.8688049 -1.8687744l7.474991 0l0 0c0.495636 0 0.9709778 0.19683838 1.3214417 0.5473633c0.3504715 0.35046387 0.5473633 0.82580566 0.5473633 1.3214111l0 8.073425c0 1.0321045 -0.8366928 1.8687744 -1.8688049 1.8687744l-7.474991 0c-1.0321121 0 -1.8688049 -0.8366699 -1.8688049 -1.8687744z" fill-rule="evenodd"/><path fill="#000000" fill-opacity="0.0" d="m90.27034 726.22314l0 0c0 -1.0321045 0.8366928 -1.8688354 1.8688049 -1.8688354l7.474991 0l0 0c0.495636 0 0.9709778 0.19689941 1.3214417 0.5473633c0.3504715 0.35046387 0.5473633 0.82580566 0.5473633 1.3214722l0 8.073425c0 1.0321045 -0.8366928 1.8687744 -1.8688049 1.8687744l-7.474991 0c-1.0321121 0 -1.8688049 -0.8366699 -1.8688049 -1.8687744z" fill-rule="evenodd"/><path stroke="#666666" stroke-width="3.0" stroke-linejoin="round" stroke-linecap="butt" d="m90.27034 726.22314l0 0c0 -1.0321045 0.8366928 -1.8688354 1.8688049 -1.8688354l7.474991 0l0 0c0.495636 0 0.9709778 0.19689941 1.3214417 0.5473633c0.3504715 0.35046387 0.5473633 0.82580566 0.5473633 1.3214722l0 8.073425c0 1.0321045 -0.8366928 1.8687744 -1.8688049 1.8687744l-7.474991 0c-1.0321121 0 -1.8688049 -0.8366699 -1.8688049 -1.8687744z" fill-rule="evenodd"/></g></svg>